<svg version="1.1" id="Layer_1" xmlns="http://www.w3.org/2000/svg" xmlns:xlink="http://www.w3.org/1999/xlink" x="0px" y="0px"
	 width="100%" viewBox="0 0 1920 1080" enable-background="new 0 0 1920 1080" xml:space="preserve">
<path fill="#F52C21" opacity="1.000000" stroke="none" 
	d="
M1921.000000,15.000000 
	C1921.000000,199.025833 1921.000000,383.051666 1920.648682,567.527710 
	C1896.942871,555.294189 1873.937134,541.911194 1850.167236,530.061096 
	C1785.159668,497.652771 1716.758179,488.703888 1645.263306,501.571381 
	C1614.420288,507.122437 1584.448975,515.526550 1554.890625,525.730347 
	C1552.039062,526.714783 1548.290894,526.753540 1545.435669,525.801514 
	C1529.856567,520.607117 1514.608032,514.367676 1498.907593,509.601654 
	C1466.621826,499.801086 1433.583496,493.738708 1399.767334,493.108734 
	C1378.121460,492.705475 1356.441406,492.590576 1334.810303,493.330688 
	C1303.432251,494.404327 1272.622070,499.492523 1242.515625,508.652985 
	C1207.240234,519.386292 1176.025513,538.038086 1145.682373,558.299194 
	C1136.585449,564.373413 1128.058716,571.374451 1119.756348,578.515564 
	C1117.599609,580.370728 1116.478394,581.270020 1113.624756,580.551025 
	C1066.264404,568.619568 1018.162964,562.629089 969.303589,563.086426 
	C943.152710,563.331238 916.973206,563.122253 890.862549,564.329651 
	C864.951599,565.527832 838.889404,566.765076 813.283752,570.594482 
	C752.556946,579.676514 694.967041,599.294495 639.565002,626.151489 
	C612.208130,613.767639 584.146667,604.829285 554.800110,600.303528 
	C530.084595,596.491882 505.470032,597.351929 480.761993,603.127625 
	C474.090485,599.363037 467.929810,595.369812 461.394440,592.133240 
	C422.326172,572.785095 381.809296,557.253540 339.756622,545.609619 
	C302.557007,535.309509 264.998138,526.716797 226.652863,522.362549 
	C196.596710,518.949707 166.401184,516.567383 136.211044,514.591003 
	C110.262077,512.892212 84.286697,514.082031 58.519772,517.824646 
	C39.307613,520.615295 20.170525,523.922729 1.000000,527.000000 
	C1.000000,351.730042 1.000000,176.460052 1.000000,1.000000 
	C215.359131,1.000000 429.718323,1.000000 644.565308,1.379233 
	C649.147766,16.243435 656.506653,28.999737 665.892273,40.627350 
	C682.639526,61.374966 702.424866,78.254829 727.074036,89.136833 
	C756.466003,102.112686 787.489990,107.312302 819.257568,108.755875 
	C857.076233,110.474434 894.862732,108.839745 932.540161,105.680954 
	C972.671204,102.316460 1012.712036,97.889336 1052.821167,94.243881 
	C1091.614014,90.718063 1130.429688,87.423088 1169.260498,84.342316 
	C1215.718262,80.656425 1262.183594,77.025330 1308.680542,73.886848 
	C1356.684204,70.646675 1404.737305,68.147270 1452.754028,65.090309 
	C1481.997192,63.228554 1511.257202,61.406502 1540.428223,58.692574 
	C1573.059692,55.656734 1605.655396,52.072411 1638.162354,47.912258 
	C1669.163574,43.944801 1700.029419,38.919403 1730.957153,34.376560 
	C1758.938599,30.266497 1786.819336,25.120825 1814.933472,22.350883 
	C1850.188110,18.877441 1885.635742,17.361048 1921.000000,15.000000 
z"/>
<path fill="#091720" opacity="1.000000" stroke="none" 
	d="
M1921.000000,1058.000000 
	C1921.000000,1065.665161 1921.000000,1073.330322 1921.000000,1080.938965 
	C1281.000000,1080.938965 641.000000,1080.938965 1.000000,1080.938965 
	C1.000000,1015.557251 1.000000,950.236572 1.362346,884.388245 
	C7.358228,881.829834 13.321459,880.425232 18.569157,877.661743 
	C43.373993,864.599304 70.805939,859.022339 96.907730,849.681396 
	C99.243279,848.845642 101.734657,848.426331 104.171600,847.895935 
	C117.786423,844.932617 131.406754,841.994629 145.454620,839.063965 
	C158.298904,837.848938 170.710022,836.579041 183.129395,835.395569 
	C206.304581,833.187256 229.444427,830.255737 252.672928,829.049561 
	C280.563995,827.601257 308.530212,827.468262 336.468323,827.133972 
	C345.599396,827.024719 354.738892,828.212036 363.883942,828.554688 
	C385.491425,829.364197 407.139832,829.483765 428.705353,830.895630 
	C449.764893,832.274231 470.740204,834.929260 491.756042,836.987915 
	C511.114655,838.884277 530.570740,840.069214 549.817627,842.757507 
	C578.785156,846.803711 607.675781,851.506287 636.471558,856.644592 
	C661.439636,861.099854 686.238098,866.511230 711.096802,871.572266 
	C725.394165,874.483093 739.681824,877.447388 753.937256,880.555603 
	C765.570862,883.092224 777.151855,885.870544 788.752991,888.555359 
	C804.617249,892.226746 820.551086,895.626526 836.324707,899.653625 
	C862.885986,906.434998 889.380005,913.488281 915.836121,920.670837 
	C939.727417,927.156982 963.519226,934.008789 987.374939,940.627258 
	C1012.829590,947.689331 1038.311646,954.652405 1063.774170,961.686829 
	C1082.183838,966.772827 1100.580811,971.904602 1119.259521,977.262573 
	C1124.668701,978.861328 1129.798828,980.224792 1134.935425,981.563660 
	C1159.375732,987.934448 1183.785645,994.425537 1208.268921,1000.626648 
	C1229.852051,1006.093201 1251.442871,1011.569763 1273.170288,1016.413513 
	C1291.334595,1020.462830 1309.604736,1024.254761 1328.001709,1026.993286 
	C1355.459595,1031.080688 1383.054199,1034.274292 1410.621094,1037.595459 
	C1430.101929,1039.942383 1449.601318,1042.246582 1469.149780,1043.888428 
	C1492.191040,1045.823608 1515.294067,1047.023682 1538.710938,1048.710205 
	C1540.047241,1048.848267 1541.042847,1048.818604 1542.348877,1048.840698 
	C1543.075806,1048.852783 1543.492188,1048.813110 1544.373291,1048.878662 
	C1563.124512,1049.802734 1581.409668,1050.660767 1599.698364,1051.428955 
	C1616.647583,1052.140869 1633.596924,1052.907471 1650.553589,1053.379028 
	C1674.337524,1054.040649 1698.128052,1054.460449 1721.916260,1054.966309 
	C1738.052734,1055.309326 1754.188721,1055.724731 1770.327148,1055.921997 
	C1788.460571,1056.143677 1806.596436,1056.153809 1824.731323,1056.267334 
	C1825.729248,1056.273560 1826.725830,1056.420898 1827.724243,1056.442627 
	C1844.691650,1056.811768 1861.658325,1057.227539 1878.627075,1057.516113 
	C1892.750122,1057.756226 1906.875610,1057.844482 1921.000000,1058.000000 
z"/>
<path fill="#091720" opacity="1.000000" stroke="none" 
	d="
M481.099731,603.248657 
	C505.470032,597.351929 530.084595,596.491882 554.800110,600.303528 
	C584.146667,604.829285 612.208130,613.767639 639.794434,626.406677 
	C653.578491,633.591553 666.815979,640.345215 680.190674,647.405640 
	C685.792480,651.085022 691.586914,654.027405 696.657532,657.914062 
	C709.776672,667.970398 722.604736,678.408081 735.496338,688.759155 
	C749.322693,699.860718 760.011536,713.443787 767.501709,729.186584 
	C776.443359,725.497437 785.398193,721.180969 794.753723,718.069519 
	C815.710388,711.099731 837.465088,709.102844 859.238525,711.851318 
	C883.589417,714.925110 907.746460,719.542908 931.979492,723.539185 
	C945.729248,725.806641 959.427795,728.413696 973.216187,730.405884 
	C981.116333,731.547302 989.272156,732.094727 996.616211,727.904419 
	C1011.607727,719.350464 1026.949463,711.288818 1041.277466,701.722168 
	C1062.139404,687.793030 1079.310547,669.498718 1096.687256,651.567139 
	C1108.470703,639.407410 1120.184692,627.180359 1132.163696,614.743408 
	C1133.799072,613.086121 1135.181763,611.649414 1136.605103,610.254395 
	C1156.933105,590.331116 1179.962769,574.774719 1208.170288,568.738281 
	C1231.750366,563.692200 1255.656616,562.830933 1279.699219,565.844238 
	C1321.289429,571.056824 1358.855713,585.954224 1391.496948,612.359436 
	C1410.284668,627.557739 1428.968872,642.854309 1450.050171,654.797119 
	C1458.079346,659.345764 1466.387939,664.820129 1475.165771,666.276489 
	C1486.607422,668.174805 1498.849121,667.841370 1510.378418,666.070801 
	C1532.575562,662.662170 1551.953125,651.700684 1571.146851,640.490051 
	C1591.086182,628.844055 1610.961670,616.914307 1631.736694,606.920593 
	C1654.904053,595.776062 1679.864990,591.648071 1705.652100,595.061218 
	C1750.986328,601.061462 1793.393921,640.281189 1802.957153,685.327881 
	C1804.056885,690.508301 1806.144775,691.878845 1811.073975,692.090088 
	C1819.873535,692.467224 1828.631470,693.740784 1837.418091,694.509338 
	C1858.969727,696.394470 1880.523804,698.253906 1902.085571,700.016174 
	C1908.375244,700.530151 1914.694336,700.682068 1921.000000,701.000000 
	C1921.000000,721.354248 1921.000000,741.708435 1920.531372,762.531677 
	C1280.375122,763.000427 640.687561,763.000244 1.000000,763.000000 
	C1.000000,728.645752 1.000000,694.291565 1.463390,659.410828 
	C50.303547,660.553406 92.383865,678.392761 128.590439,708.019470 
	C139.361343,701.050354 149.240051,693.596558 160.039902,687.884277 
	C185.142914,674.606567 212.406219,668.852966 240.587646,667.102051 
	C270.089508,665.269043 297.404907,672.246704 322.345856,688.051025 
	C328.153625,691.731201 333.318207,696.426331 338.828186,700.692871 
	C368.752228,667.456543 402.391541,638.952087 442.420288,617.920410 
	C446.499176,616.202209 450.157654,614.370850 453.970673,612.955933 
	C462.974579,609.614685 472.052002,606.471741 481.099731,603.248657 
z"/>
<path fill="#20C1E1" opacity="1.000000" stroke="none" 
	d="
M1118.983521,977.015991 
	C1100.580811,971.904602 1082.183838,966.772827 1063.774170,961.686829 
	C1038.311646,954.652405 1012.829590,947.689331 987.374939,940.627258 
	C963.519226,934.008789 939.727417,927.156982 915.836121,920.670837 
	C889.380005,913.488281 862.885986,906.434998 836.324707,899.653625 
	C820.551086,895.626526 804.617249,892.226746 788.752991,888.555359 
	C777.151855,885.870544 765.570862,883.092224 753.937256,880.555603 
	C739.681824,877.447388 725.394165,874.483093 711.096802,871.572266 
	C686.238098,866.511230 661.439636,861.099854 636.471558,856.644592 
	C607.675781,851.506287 578.785156,846.803711 549.817627,842.757507 
	C530.570740,840.069214 511.114655,838.884277 491.756042,836.987915 
	C470.740204,834.929260 449.764893,832.274231 428.705353,830.895630 
	C407.139832,829.483765 385.491425,829.364197 363.883942,828.554688 
	C354.738892,828.212036 345.599396,827.024719 336.468323,827.133972 
	C308.530212,827.468262 280.563995,827.601257 252.672928,829.049561 
	C229.444427,830.255737 206.304581,833.187256 183.129395,835.395569 
	C170.710022,836.579041 158.298904,837.848938 145.122131,838.822876 
	C134.947769,837.724854 125.550423,836.487122 116.119652,836.128845 
	C98.665604,835.465820 81.184380,835.529053 63.728527,834.900085 
	C42.811340,834.146362 21.908854,832.984863 1.000000,832.000000 
	C1.000000,817.645752 1.000000,803.291565 1.448416,788.473877 
	C12.314775,788.926697 22.751947,789.667603 33.145374,790.807434 
	C44.034313,792.001709 54.864220,794.592651 65.750168,794.775696 
	C87.874855,795.147949 110.019958,794.312622 132.156418,793.960876 
	C133.152054,793.945068 134.143951,793.764893 135.140213,793.705383 
	C144.589645,793.141724 154.034027,792.421326 163.491882,792.100403 
	C168.280655,791.938049 173.095245,792.720398 177.896164,792.695068 
	C189.369965,792.634521 200.874329,791.713684 212.308960,792.286438 
	C235.521957,793.449158 258.696655,795.374939 281.888092,796.972351 
	C284.375916,797.143677 286.879761,797.123108 289.359589,797.363159 
	C301.423523,798.530945 313.481537,799.759277 325.542053,800.962097 
	C341.235901,802.527344 356.942932,803.972656 372.618469,805.703674 
	C379.880249,806.505493 387.050323,808.158386 394.315491,808.903992 
	C410.167023,810.530701 426.045746,811.908142 441.926361,813.231506 
	C461.946136,814.899780 481.968872,816.557251 502.009430,817.943176 
	C516.051453,818.914307 530.127625,819.383667 544.184753,820.147705 
	C567.243164,821.401001 590.295532,822.769348 613.356262,823.977661 
	C628.910095,824.792725 644.484802,825.239319 660.029419,826.189880 
	C669.800964,826.787415 679.515381,828.359558 689.288208,828.885986 
	C712.023926,830.110718 734.772095,831.218567 757.529297,831.901367 
	C779.603760,832.563599 801.694885,832.745911 823.780457,832.934570 
	C843.196655,833.100403 862.616089,832.879517 882.032410,833.036011 
	C891.506287,833.112427 900.974976,833.708557 910.448547,833.981873 
	C923.417786,834.356079 936.393921,834.524902 949.358826,835.006592 
	C963.447998,835.529968 977.525635,836.357178 991.612122,836.964844 
	C1002.552612,837.436768 1013.514282,837.533752 1024.439087,838.229065 
	C1041.172974,839.294250 1057.870483,840.947327 1074.607422,841.948059 
	C1090.813843,842.916992 1107.054810,843.287109 1123.272583,844.084656 
	C1140.861816,844.949707 1158.435791,846.138489 1176.028320,846.917908 
	C1184.291016,847.283875 1192.583618,846.909241 1200.858643,847.072083 
	C1210.781738,847.267334 1220.701660,847.648193 1230.620850,848.004700 
	C1238.428101,848.285339 1246.230347,848.854187 1254.038452,848.934631 
	C1268.649414,849.085266 1283.263794,849.069946 1297.875122,848.931641 
	C1305.016479,848.864014 1312.152588,848.171997 1319.293457,848.124512 
	C1324.597778,848.089233 1329.908203,848.907593 1335.211792,848.861755 
	C1343.519409,848.789978 1351.821777,848.246460 1360.129761,848.026367 
	C1365.072021,847.895386 1370.021851,848.078247 1374.965820,847.985535 
	C1391.270508,847.679871 1407.573364,847.282104 1423.878052,846.977417 
	C1443.514404,846.610413 1463.151855,846.302856 1482.788818,845.966553 
	C1483.454834,845.955139 1484.120605,845.915771 1484.786133,845.881592 
	C1503.535400,844.919373 1522.280518,843.863281 1541.035400,843.026367 
	C1552.998169,842.492493 1564.976196,842.312866 1576.945557,841.917236 
	C1584.869751,841.655457 1592.793457,841.347778 1600.711670,840.947266 
	C1603.859009,840.788025 1606.983765,840.157043 1610.130859,840.023010 
	C1634.517822,838.984436 1658.906494,837.987305 1683.296753,837.031616 
	C1710.209106,835.976990 1737.121948,834.929382 1764.038330,833.990845 
	C1771.476929,833.731384 1778.945312,834.168579 1786.372314,833.770874 
	C1807.434448,832.643066 1828.494629,831.417480 1849.531250,829.895996 
	C1862.109375,828.986267 1874.691650,827.808594 1887.180542,826.087708 
	C1898.518066,824.525513 1909.731689,822.064758 1921.000000,820.000000 
	C1921.000000,850.687561 1921.000000,881.375122 1920.614258,912.609253 
	C1908.262695,915.997681 1896.339111,919.034790 1884.321899,921.639893 
	C1861.100708,926.673889 1837.887817,931.781128 1814.558228,936.269470 
	C1789.600342,941.071167 1764.511353,945.192261 1739.480469,949.614563 
	C1731.296631,951.060364 1723.152832,952.797607 1714.924561,953.914978 
	C1696.999878,956.349060 1679.024414,958.406494 1661.087158,960.752502 
	C1654.337891,961.635254 1647.669800,963.194214 1640.908325,963.917603 
	C1622.424561,965.895203 1603.902222,967.507202 1585.411743,969.425537 
	C1568.736450,971.155579 1552.112549,973.441467 1535.413330,974.866272 
	C1512.086548,976.856567 1488.726196,978.542542 1465.352173,979.863037 
	C1441.294556,981.222046 1417.210327,982.241699 1393.124146,982.922058 
	C1376.528564,983.390808 1359.908569,982.927368 1343.301392,983.080261 
	C1334.661255,983.159790 1326.026245,983.873901 1317.386841,983.921387 
	C1311.082764,983.956055 1304.778442,983.232483 1298.468872,983.096924 
	C1291.192993,982.940674 1283.909546,983.162354 1276.632446,983.037537 
	C1260.329224,982.758118 1244.024658,982.475708 1227.726685,981.989868 
	C1209.450317,981.445007 1191.171509,980.859680 1172.911255,979.940613 
	C1159.483276,979.264709 1146.088867,977.941956 1132.668457,977.079346 
	C1128.124268,976.787292 1123.546143,977.022034 1118.983521,977.015991 
z"/>
<path fill="#17AED1" opacity="1.000000" stroke="none" 
	d="
M1921.000000,819.531372 
	C1909.731689,822.064758 1898.518066,824.525513 1887.180542,826.087708 
	C1874.691650,827.808594 1862.109375,828.986267 1849.531250,829.895996 
	C1828.494629,831.417480 1807.434448,832.643066 1786.372314,833.770874 
	C1778.945312,834.168579 1771.476929,833.731384 1764.038330,833.990845 
	C1737.121948,834.929382 1710.209106,835.976990 1683.296753,837.031616 
	C1658.906494,837.987305 1634.517822,838.984436 1610.130859,840.023010 
	C1606.983765,840.157043 1603.859009,840.788025 1600.711670,840.947266 
	C1592.793457,841.347778 1584.869751,841.655457 1576.945557,841.917236 
	C1564.976196,842.312866 1552.998169,842.492493 1541.035400,843.026367 
	C1522.280518,843.863281 1503.535400,844.919373 1484.786133,845.881592 
	C1484.120605,845.915771 1483.454834,845.955139 1482.788818,845.966553 
	C1463.151855,846.302856 1443.514404,846.610413 1423.878052,846.977417 
	C1407.573364,847.282104 1391.270508,847.679871 1374.965820,847.985535 
	C1370.021851,848.078247 1365.072021,847.895386 1360.129761,848.026367 
	C1351.821777,848.246460 1343.519409,848.789978 1335.211792,848.861755 
	C1329.908203,848.907593 1324.597778,848.089233 1319.293457,848.124512 
	C1312.152588,848.171997 1305.016479,848.864014 1297.875122,848.931641 
	C1283.263794,849.069946 1268.649414,849.085266 1254.038452,848.934631 
	C1246.230347,848.854187 1238.428101,848.285339 1230.620850,848.004700 
	C1220.701660,847.648193 1210.781738,847.267334 1200.858643,847.072083 
	C1192.583618,846.909241 1184.291016,847.283875 1176.028320,846.917908 
	C1158.435791,846.138489 1140.861816,844.949707 1123.272583,844.084656 
	C1107.054810,843.287109 1090.813843,842.916992 1074.607422,841.948059 
	C1057.870483,840.947327 1041.172974,839.294250 1024.439087,838.229065 
	C1013.514282,837.533752 1002.552612,837.436768 991.612122,836.964844 
	C977.525635,836.357178 963.447998,835.529968 949.358826,835.006592 
	C936.393921,834.524902 923.417786,834.356079 910.448547,833.981873 
	C900.974976,833.708557 891.506287,833.112427 882.032410,833.036011 
	C862.616089,832.879517 843.196655,833.100403 823.780457,832.934570 
	C801.694885,832.745911 779.603760,832.563599 757.529297,831.901367 
	C734.772095,831.218567 712.023926,830.110718 689.288208,828.885986 
	C679.515381,828.359558 669.800964,826.787415 660.029419,826.189880 
	C644.484802,825.239319 628.910095,824.792725 613.356262,823.977661 
	C590.295532,822.769348 567.243164,821.401001 544.184753,820.147705 
	C530.127625,819.383667 516.051453,818.914307 502.009430,817.943176 
	C481.968872,816.557251 461.946136,814.899780 441.926361,813.231506 
	C426.045746,811.908142 410.167023,810.530701 394.315491,808.903992 
	C387.050323,808.158386 379.880249,806.505493 372.618469,805.703674 
	C356.942932,803.972656 341.235901,802.527344 325.542053,800.962097 
	C313.481537,799.759277 301.423523,798.530945 289.359589,797.363159 
	C286.879761,797.123108 284.375916,797.143677 281.888092,796.972351 
	C258.696655,795.374939 235.521957,793.449158 212.308960,792.286438 
	C200.874329,791.713684 189.369965,792.634521 177.896164,792.695068 
	C173.095245,792.720398 168.280655,791.938049 163.491882,792.100403 
	C154.034027,792.421326 144.589645,793.141724 135.140213,793.705383 
	C134.143951,793.764893 133.152054,793.945068 132.156418,793.960876 
	C110.019958,794.312622 87.874855,795.147949 65.750168,794.775696 
	C54.864220,794.592651 44.034313,792.001709 33.145374,790.807434 
	C22.751947,789.667603 12.314775,788.926697 1.448416,788.005249 
	C1.000000,779.979065 1.000000,771.958191 1.000000,763.468628 
	C640.687561,763.000244 1280.375122,763.000427 1920.531372,763.000366 
	C1921.000000,781.687561 1921.000000,800.375122 1921.000000,819.531372 
z"/>
<path fill="#83E2F0" opacity="1.000000" stroke="none" 
	d="
M680.053528,647.098877 
	C666.815979,640.345215 653.578491,633.591553 640.111572,626.582642 
	C694.967041,599.294495 752.556946,579.676514 813.283752,570.594482 
	C838.889404,566.765076 864.951599,565.527832 890.862549,564.329651 
	C916.973206,563.122253 943.152710,563.331238 969.303589,563.086426 
	C1018.162964,562.629089 1066.264404,568.619568 1113.624756,580.551025 
	C1116.478394,581.270020 1117.599609,580.370728 1119.756348,578.515564 
	C1128.058716,571.374451 1136.585449,564.373413 1145.682373,558.299194 
	C1176.025513,538.038086 1207.240234,519.386292 1242.515625,508.652985 
	C1272.622070,499.492523 1303.432251,494.404327 1334.810303,493.330688 
	C1356.441406,492.590576 1378.121460,492.705475 1399.767334,493.108734 
	C1433.583496,493.738708 1466.621826,499.801086 1498.907593,509.601654 
	C1514.608032,514.367676 1529.856567,520.607117 1545.435669,525.801514 
	C1548.290894,526.753540 1552.039062,526.714783 1554.890625,525.730347 
	C1584.448975,515.526550 1614.420288,507.122437 1645.263306,501.571381 
	C1716.758179,488.703888 1785.159668,497.652771 1850.167236,530.061096 
	C1873.937134,541.911194 1896.942871,555.294189 1920.648682,567.988953 
	C1921.000000,612.020874 1921.000000,656.041809 1921.000000,700.531372 
	C1914.694336,700.682068 1908.375244,700.530151 1902.085571,700.016174 
	C1880.523804,698.253906 1858.969727,696.394470 1837.418091,694.509338 
	C1828.631470,693.740784 1819.873535,692.467224 1811.073975,692.090088 
	C1806.144775,691.878845 1804.056885,690.508301 1802.957153,685.327881 
	C1793.393921,640.281189 1750.986328,601.061462 1705.652100,595.061218 
	C1679.864990,591.648071 1654.904053,595.776062 1631.736694,606.920593 
	C1610.961670,616.914307 1591.086182,628.844055 1571.146851,640.490051 
	C1551.953125,651.700684 1532.575562,662.662170 1510.378418,666.070801 
	C1498.849121,667.841370 1486.607422,668.174805 1475.165771,666.276489 
	C1466.387939,664.820129 1458.079346,659.345764 1450.050171,654.797119 
	C1428.968872,642.854309 1410.284668,627.557739 1391.496948,612.359436 
	C1358.855713,585.954224 1321.289429,571.056824 1279.699219,565.844238 
	C1255.656616,562.830933 1231.750366,563.692200 1208.170288,568.738281 
	C1179.962769,574.774719 1156.933105,590.331116 1136.605103,610.254395 
	C1135.181763,611.649414 1133.799072,613.086121 1131.781494,614.662598 
	C1114.554077,612.391541 1097.910034,610.164673 1081.338013,607.490967 
	C1040.872437,600.962158 1000.219727,595.955444 959.198669,596.288574 
	C931.934998,596.509949 904.691772,598.778687 877.430603,599.920593 
	C850.432373,601.051514 823.607727,604.005127 797.285706,609.881836 
	C769.214661,616.148987 741.425354,623.707825 713.605042,631.051025 
	C704.619995,633.422668 695.783630,636.548035 687.178650,640.061890 
	C684.322083,641.228333 682.401855,644.687744 680.053528,647.098877 
z"/>
<path fill="#2DDBF6" opacity="1.000000" stroke="none" 
	d="
M1119.259521,977.262573 
	C1123.546143,977.022034 1128.124268,976.787292 1132.668457,977.079346 
	C1146.088867,977.941956 1159.483276,979.264709 1172.911255,979.940613 
	C1191.171509,980.859680 1209.450317,981.445007 1227.726685,981.989868 
	C1244.024658,982.475708 1260.329224,982.758118 1276.632446,983.037537 
	C1283.909546,983.162354 1291.192993,982.940674 1298.468872,983.096924 
	C1304.778442,983.232483 1311.082764,983.956055 1317.386841,983.921387 
	C1326.026245,983.873901 1334.661255,983.159790 1343.301392,983.080261 
	C1359.908569,982.927368 1376.528564,983.390808 1393.124146,982.922058 
	C1417.210327,982.241699 1441.294556,981.222046 1465.352173,979.863037 
	C1488.726196,978.542542 1512.086548,976.856567 1535.413330,974.866272 
	C1552.112549,973.441467 1568.736450,971.155579 1585.411743,969.425537 
	C1603.902222,967.507202 1622.424561,965.895203 1640.908325,963.917603 
	C1647.669800,963.194214 1654.337891,961.635254 1661.087158,960.752502 
	C1679.024414,958.406494 1696.999878,956.349060 1714.924561,953.914978 
	C1723.152832,952.797607 1731.296631,951.060364 1739.480469,949.614563 
	C1764.511353,945.192261 1789.600342,941.071167 1814.558228,936.269470 
	C1837.887817,931.781128 1861.100708,926.673889 1884.321899,921.639893 
	C1896.339111,919.034790 1908.262695,915.997681 1920.614258,913.077881 
	C1921.000000,947.020874 1921.000000,981.041809 1920.572754,1015.541138 
	C1911.601807,1017.333435 1903.091919,1018.956970 1894.506958,1019.893494 
	C1878.991821,1021.585999 1863.425659,1022.802307 1847.892822,1024.340698 
	C1833.018677,1025.813721 1818.164917,1027.490723 1803.293213,1028.989746 
	C1790.730835,1030.256104 1778.154175,1031.380737 1765.586548,1032.595093 
	C1747.235474,1034.368408 1728.906738,1036.420044 1710.530518,1037.872559 
	C1696.117798,1039.011841 1681.633789,1039.224365 1667.205566,1040.204346 
	C1646.154663,1041.634155 1625.142090,1043.662598 1604.082031,1044.910889 
	C1585.656494,1046.003174 1567.186401,1046.332642 1548.741455,1047.125488 
	C1547.109985,1047.195679 1545.518677,1048.202026 1543.908691,1048.773438 
	C1543.492188,1048.813110 1543.075806,1048.852783 1542.019775,1048.640747 
	C1540.376953,1048.440186 1539.373657,1048.491333 1538.370239,1048.542480 
	C1515.294067,1047.023682 1492.191040,1045.823608 1469.149780,1043.888428 
	C1449.601318,1042.246582 1430.101929,1039.942383 1410.621094,1037.595459 
	C1383.054199,1034.274292 1355.459595,1031.080688 1328.001709,1026.993286 
	C1309.604736,1024.254761 1291.334595,1020.462830 1273.170288,1016.413513 
	C1251.442871,1011.569763 1229.852051,1006.093201 1208.268921,1000.626648 
	C1183.785645,994.425537 1159.375732,987.934448 1134.935425,981.563660 
	C1129.798828,980.224792 1124.668701,978.861328 1119.259521,977.262573 
z"/>
<path fill="#2DDBF6" opacity="1.000000" stroke="none" 
	d="
M442.070099,617.996460 
	C402.391541,638.952087 368.752228,667.456543 338.828186,700.692871 
	C333.318207,696.426331 328.153625,691.731201 322.345856,688.051025 
	C297.404907,672.246704 270.089508,665.269043 240.587646,667.102051 
	C212.406219,668.852966 185.142914,674.606567 160.039902,687.884277 
	C149.240051,693.596558 139.361343,701.050354 128.590439,708.019470 
	C92.383865,678.392761 50.303547,660.553406 1.463390,658.942139 
	C1.000000,625.979126 1.000000,592.958191 1.391182,559.432617 
	C21.717272,555.245789 41.541157,550.733459 61.609562,548.049622 
	C107.258766,541.944824 153.029190,542.912292 198.523849,549.554871 
	C258.522644,558.315247 317.623657,571.555847 375.963501,588.056519 
	C399.443298,594.697510 421.737244,604.258179 442.070099,617.996460 
z"/>
<path fill="#E1E9EA" opacity="1.000000" stroke="none" 
	d="
M1921.000000,14.525871 
	C1885.635742,17.361048 1850.188110,18.877441 1814.933472,22.350883 
	C1786.819336,25.120825 1758.938599,30.266497 1730.957153,34.376560 
	C1700.029419,38.919403 1669.163574,43.944801 1638.162354,47.912258 
	C1605.655396,52.072411 1573.059692,55.656734 1540.428223,58.692574 
	C1511.257202,61.406502 1481.997192,63.228554 1452.754028,65.090309 
	C1404.737305,68.147270 1356.684204,70.646675 1308.680542,73.886848 
	C1262.183594,77.025330 1215.718262,80.656425 1169.260498,84.342316 
	C1130.429688,87.423088 1091.614014,90.718063 1052.821167,94.243881 
	C1012.712036,97.889336 972.671204,102.316460 932.540161,105.680954 
	C894.862732,108.839745 857.076233,110.474434 819.257568,108.755875 
	C787.489990,107.312302 756.466003,102.112686 727.074036,89.136833 
	C702.424866,78.254829 682.639526,61.374966 665.892273,40.627350 
	C656.506653,28.999737 649.147766,16.243435 645.026489,1.379233 
	C656.354248,1.000000 667.708435,1.000000 679.706299,1.283881 
	C684.490845,5.150320 688.460693,8.957239 692.806335,12.271350 
	C703.760864,20.625628 714.118042,30.159760 726.089600,36.707016 
	C757.596375,53.938175 790.783386,66.852890 826.618713,72.620079 
	C848.691040,76.172302 870.516724,75.889420 892.554077,73.428650 
	C907.477783,71.762215 921.910095,67.687111 937.417542,68.583267 
	C959.625854,69.866653 981.999451,68.506546 1004.295715,67.984879 
	C1023.074768,67.545486 1041.860107,66.977806 1060.613159,65.936745 
	C1077.346069,65.007828 1094.079956,63.733425 1110.737427,61.915051 
	C1128.395264,59.987492 1145.975830,57.326263 1163.566406,54.819080 
	C1176.059937,53.038414 1188.495972,50.854836 1200.990356,49.081326 
	C1215.783691,46.981495 1230.611816,45.126797 1245.425415,43.170109 
	C1258.594116,41.430702 1271.747437,39.561340 1284.937256,37.998890 
	C1298.289795,36.417141 1311.672852,35.083977 1325.053101,33.748226 
	C1338.265015,32.429298 1351.484131,31.174467 1364.711182,30.018326 
	C1378.109985,28.847170 1391.527222,27.885815 1404.927734,26.732229 
	C1418.653076,25.550690 1432.358643,24.134352 1446.089600,23.028318 
	C1460.821167,21.841682 1475.592041,21.116261 1490.309937,19.791729 
	C1509.486938,18.065880 1528.620239,15.858495 1547.788818,14.031078 
	C1560.681641,12.801959 1573.612671,11.975626 1586.509155,10.781726 
	C1602.542480,9.297434 1618.534790,7.308522 1634.587402,6.107954 
	C1652.970825,4.733060 1671.405640,4.054226 1689.807251,2.900341 
	C1693.231079,2.685655 1696.603760,1.654395 1700.000000,0.999997 
	C1773.666626,1.000000 1847.333374,1.000000 1921.000000,1.000000 
	C1921.000000,5.401647 1921.000000,9.726696 1921.000000,14.525871 
z"/>
<path fill="#BDEEF3" opacity="1.000000" stroke="none" 
	d="
M1699.531372,0.999997 
	C1696.603760,1.654395 1693.231079,2.685655 1689.807251,2.900341 
	C1671.405640,4.054226 1652.970825,4.733060 1634.587402,6.107954 
	C1618.534790,7.308522 1602.542480,9.297434 1586.509155,10.781726 
	C1573.612671,11.975626 1560.681641,12.801959 1547.788818,14.031078 
	C1528.620239,15.858495 1509.486938,18.065880 1490.309937,19.791729 
	C1475.592041,21.116261 1460.821167,21.841682 1446.089600,23.028318 
	C1432.358643,24.134352 1418.653076,25.550690 1404.927734,26.732229 
	C1391.527222,27.885815 1378.109985,28.847170 1364.711182,30.018326 
	C1351.484131,31.174467 1338.265015,32.429298 1325.053101,33.748226 
	C1311.672852,35.083977 1298.289795,36.417141 1284.937256,37.998890 
	C1271.747437,39.561340 1258.594116,41.430702 1245.425415,43.170109 
	C1230.611816,45.126797 1215.783691,46.981495 1200.990356,49.081326 
	C1188.495972,50.854836 1176.059937,53.038414 1163.566406,54.819080 
	C1145.975830,57.326263 1128.395264,59.987492 1110.737427,61.915051 
	C1094.079956,63.733425 1077.346069,65.007828 1060.613159,65.936745 
	C1041.860107,66.977806 1023.074768,67.545486 1004.295715,67.984879 
	C981.999451,68.506546 959.625854,69.866653 937.417542,68.583267 
	C921.910095,67.687111 907.477783,71.762215 892.554077,73.428650 
	C870.516724,75.889420 848.691040,76.172302 826.618713,72.620079 
	C790.783386,66.852890 757.596375,53.938175 726.089600,36.707016 
	C714.118042,30.159760 703.760864,20.625628 692.806335,12.271350 
	C688.460693,8.957239 684.490845,5.150320 680.174927,1.283881 
	C1019.687561,1.000000 1359.375122,1.000000 1699.531372,0.999997 
z"/>
<path fill="#E0E9EA" opacity="1.000000" stroke="none" 
	d="
M442.420288,617.920410 
	C421.737244,604.258179 399.443298,594.697510 375.963501,588.056519 
	C317.623657,571.555847 258.522644,558.315247 198.523849,549.554871 
	C153.029190,542.912292 107.258766,541.944824 61.609562,548.049622 
	C41.541157,550.733459 21.717272,555.245789 1.391182,558.963928 
	C1.000000,548.645752 1.000000,538.291565 1.000000,527.468628 
	C20.170525,523.922729 39.307613,520.615295 58.519772,517.824646 
	C84.286697,514.082031 110.262077,512.892212 136.211044,514.591003 
	C166.401184,516.567383 196.596710,518.949707 226.652863,522.362549 
	C264.998138,526.716797 302.557007,535.309509 339.756622,545.609619 
	C381.809296,557.253540 422.326172,572.785095 461.394440,592.133240 
	C467.929810,595.369812 474.090485,599.363037 480.762024,603.127686 
	C472.052002,606.471741 462.974579,609.614685 453.970673,612.955933 
	C450.157654,614.370850 446.499176,616.202209 442.420288,617.920410 
z"/>
<path fill="#17AED1" opacity="1.000000" stroke="none" 
	d="
M1544.373291,1048.878662 
	C1545.518677,1048.202026 1547.109985,1047.195679 1548.741455,1047.125488 
	C1567.186401,1046.332642 1585.656494,1046.003174 1604.082031,1044.910889 
	C1625.142090,1043.662598 1646.154663,1041.634155 1667.205566,1040.204346 
	C1681.633789,1039.224365 1696.117798,1039.011841 1710.530518,1037.872559 
	C1728.906738,1036.420044 1747.235474,1034.368408 1765.586548,1032.595093 
	C1778.154175,1031.380737 1790.730835,1030.256104 1803.293213,1028.989746 
	C1818.164917,1027.490723 1833.018677,1025.813721 1847.892822,1024.340698 
	C1863.425659,1022.802307 1878.991821,1021.585999 1894.506958,1019.893494 
	C1903.091919,1018.956970 1911.601807,1017.333435 1920.572754,1016.009827 
	C1921.000000,1029.687622 1921.000000,1043.375122 1921.000000,1057.531372 
	C1906.875610,1057.844482 1892.750122,1057.756226 1878.627075,1057.516113 
	C1861.658325,1057.227539 1844.691650,1056.811768 1827.724243,1056.442627 
	C1826.725830,1056.420898 1825.729248,1056.273560 1824.731323,1056.267334 
	C1806.596436,1056.153809 1788.460571,1056.143677 1770.327148,1055.921997 
	C1754.188721,1055.724731 1738.052734,1055.309326 1721.916260,1054.966309 
	C1698.128052,1054.460449 1674.337524,1054.040649 1650.553589,1053.379028 
	C1633.596924,1052.907471 1616.647583,1052.140869 1599.698364,1051.428955 
	C1581.409668,1050.660767 1563.124512,1049.802734 1544.373291,1048.878662 
z"/>
<path fill="#17AED0" opacity="1.000000" stroke="none" 
	d="
M1.000000,832.468628 
	C21.908854,832.984863 42.811340,834.146362 63.728527,834.900085 
	C81.184380,835.529053 98.665604,835.465820 116.119652,836.128845 
	C125.550423,836.487122 134.947769,837.724854 144.692688,838.806885 
	C131.406754,841.994629 117.786423,844.932617 104.171600,847.895935 
	C101.734657,848.426331 99.243279,848.845642 96.907730,849.681396 
	C70.805939,859.022339 43.373993,864.599304 18.569157,877.661743 
	C13.321459,880.425232 7.358228,881.829834 1.362346,883.930298 
	C1.000000,866.979126 1.000000,849.958191 1.000000,832.468628 
z"/>
<path fill="#17AED1" opacity="1.000000" stroke="none" 
	d="
M1538.710938,1048.710205 
	C1539.373657,1048.491333 1540.376953,1048.440186 1541.709351,1048.588989 
	C1541.042847,1048.818604 1540.047241,1048.848267 1538.710938,1048.710205 
z"/>
<path fill="#2DDBF6" opacity="1.000000" stroke="none" 
	d="
M680.190674,647.405640 
	C682.401855,644.687744 684.322083,641.228333 687.178650,640.061890 
	C695.783630,636.548035 704.619995,633.422668 713.605042,631.051025 
	C741.425354,623.707825 769.214661,616.148987 797.285706,609.881836 
	C823.607727,604.005127 850.432373,601.051514 877.430603,599.920593 
	C904.691772,598.778687 931.934998,596.509949 959.198669,596.288574 
	C1000.219727,595.955444 1040.872437,600.962158 1081.338013,607.490967 
	C1097.910034,610.164673 1114.554077,612.391541 1131.547607,614.902588 
	C1120.184692,627.180359 1108.470703,639.407410 1096.687256,651.567139 
	C1079.310547,669.498718 1062.139404,687.793030 1041.277466,701.722168 
	C1026.949463,711.288818 1011.607727,719.350464 996.616211,727.904419 
	C989.272156,732.094727 981.116333,731.547302 973.216187,730.405884 
	C959.427795,728.413696 945.729248,725.806641 931.979492,723.539185 
	C907.746460,719.542908 883.589417,714.925110 859.238525,711.851318 
	C837.465088,709.102844 815.710388,711.099731 794.753723,718.069519 
	C785.398193,721.180969 776.443359,725.497437 767.501709,729.186584 
	C760.011536,713.443787 749.322693,699.860718 735.496338,688.759155 
	C722.604736,678.408081 709.776672,667.970398 696.657532,657.914062 
	C691.586914,654.027405 685.792480,651.085022 680.190674,647.405640 
z"/>
</svg>