<?xml version="1.0" encoding="UTF-8" standalone="no"?>
<svg
   version="1.1"
   id="Layer_1"
   x="0px"
   y="0px"
   width="100%"
   viewBox="0 0 1920 1080"
   enable-background="new 0 0 1920 1080"
   xml:space="preserve"
   sodipodi:docname="uusi_pohja.svg"
   inkscape:version="1.2.2 (732a01da63, 2022-12-09)"
   xmlns:inkscape="http://www.inkscape.org/namespaces/inkscape"
   xmlns:sodipodi="http://sodipodi.sourceforge.net/DTD/sodipodi-0.dtd"
   xmlns="http://www.w3.org/2000/svg"
   xmlns:svg="http://www.w3.org/2000/svg"><defs
   id="defs1482" /><sodipodi:namedview
   id="namedview1480"
   pagecolor="#ffffff"
   bordercolor="#000000"
   borderopacity="0.25"
   inkscape:showpageshadow="2"
   inkscape:pageopacity="0.0"
   inkscape:pagecheckerboard="0"
   inkscape:deskcolor="#d1d1d1"
   showgrid="false"
   inkscape:zoom="0.4509416"
   inkscape:cx="696.32077"
   inkscape:cy="1104.3559"
   inkscape:window-width="1920"
   inkscape:window-height="1094"
   inkscape:window-x="-11"
   inkscape:window-y="-11"
   inkscape:window-maximized="1"
   inkscape:current-layer="Layer_1" />

<path
   fill="#010101"
   opacity="1"
   stroke="none"
   d="m 1720.7794,1088.1865 c -0.552,-11.4659 0.2171,-9.6139 -9.979,-9.8527 -34.3177,-0.8038 -68.6565,-1.034 -102.9522,-2.3753 -32.441,-1.2688 -64.8442,-3.563 -97.252,-5.5974 -19.2672,-1.2098 -38.5389,-2.4922 -57.7576,-4.289 -17.701,-1.6548 -35.3443,-3.9533 -52.9933,-6.1301 -17.1458,-2.1146 -34.3497,-3.9349 -51.3792,-6.7767 -28.273,-4.7182 -56.7898,-8.6882 -84.5572,-15.5791 -62.5594,-15.5251 -124.7874,-32.4055 -187.0258,-49.19635 -45.4633,-12.2653 -90.67759,-25.4538 -136.13309,-37.749 -7.24719,-1.9603 -15.40064,-0.447 -22.75073,-2.1748 -15.57837,-3.6622 -30.98127,-8.1448 -46.30854,-12.7791 -13.32244,-4.0281 -26.41607,-8.847 -41.00219,-8.597 -0.13019,-1.326 -0.40973,-2.5937 -0.35498,-3.8468 1.17877,-26.9544 2.44574,-53.9051 3.58703,-80.86111 0.84564,-19.97235 1.62464,-39.94836 2.27973,-59.92785 1.48523,-45.29273 2.55627,-90.60162 4.40448,-135.87909 1.50769,-36.93286 3.85888,-73.83185 5.91601,-110.74139 0.86145,-15.45698 1.94837,-30.90119 2.89722,-46.35343 0.59222,-9.64487 1.34924,-10.10522 11.20013,-11.40186 22.87854,-3.01135 45.71283,-6.35824 68.56995,-9.53396 20.23039,-2.81076 40.46719,-5.57596 60.70179,-8.35715 7.7314,-1.06268 15.48189,-2.0018 23.19069,-3.20801 5.5301,-0.86532 7.0493,-2.92825 7.2456,-8.7355 0.433,-12.81714 0.8304,-25.63614 1.3885,-38.448 0.1686,-3.86975 0.059,-8.37051 6.5959,-7.33258 v 41.78949 c 2.002,-0.37024 3.5708,-0.72156 5.1578,-0.94076 3.0587,-0.42243 5.4689,0.17663 6.7837,3.50967 1.1899,3.01636 2.4581,6.56998 6.6952,6.08987 4.9425,-0.56006 9.4146,-1.35016 11.0613,-7.71664 3.6767,-14.21613 8.1234,-28.23398 12.3059,-42.3179 0.9826,-3.30899 1.7094,-7.6012 6.0374,-7.42291 4.2972,0.17703 5.4107,4.14624 6.1415,7.92086 2.2038,11.38358 4.532,22.74304 6.7869,34.11682 1.2203,6.15519 3.567,8.07798 9.4531,7.6482 7.3948,-0.53995 9.3103,-2.48789 9.6061,-9.10483 0.7201,-16.10538 1.5705,-32.2049 2.3754,-48.44458 6.7208,0 13.5057,-0.23926 20.2508,0.17264 1.6332,0.0998 4.2828,2.17261 4.5077,3.63843 1.2635,8.23617 2.1852,16.76504 -3.3997,23.88644 -2.2424,2.85941 -5.7199,4.89777 -8.9307,6.81479 -4.587,2.73852 -7.518,8.0133 -6.7546,13.2648 0.6612,4.54639 3.5915,6.69134 8.3216,6.05429 7.5641,-1.01874 15.1373,-1.98044 22.6842,-3.11487 4.8446,-0.72824 6.9199,-3.70224 7.0149,-8.63147 0.2791,-14.49103 0.8988,-28.97571 1.145,-43.46695 0.059,-3.50723 1.1156,-5.43475 4.727,-5.328 6.4529,0.19064 13.042,-0.20099 19.2858,1.06906 2.5112,0.51083 5.7273,4.56024 6.1075,7.34293 1.7411,12.738 -0.1232,21.69671 -14.3,25.07934 -6.4598,1.54139 -10.8191,11.6594 -7.4092,17.33237 1.0962,1.82352 4.4733,3.46967 6.6214,3.26367 10.0623,-0.96503 20.0927,-2.41214 30.0649,-4.09891 3.9125,-0.6618 4.6407,-4.04678 4.7235,-7.6994 0.3023,-13.32403 0.9382,-26.64172 1.1334,-39.9664 0.071,-4.84323 1.9605,-7.4537 6.7285,-7.99325 6.2366,-0.70575 12.3039,-3.57468 18.8711,-1.76413 0.6319,4.87143 -1.0199,7.36462 -5.9155,7.87008 -2.7295,0.28183 -5.5231,1.19779 -7.9947,2.42029 -3.5658,1.76358 -4.5022,5.10556 -3.6315,8.82172 0.8441,3.60223 3.9241,3.65631 6.7411,3.55066 2.7862,-0.10449 5.5566,-0.63236 8.6849,-1.01773 0.5481,4.46869 0.033,7.71115 -5.1551,8.38867 -2.1022,0.27457 -4.1927,0.97354 -6.1742,1.76504 -3.3961,1.35639 -5.5077,5.88584 -4.1931,9.06574 1.3989,3.38388 4.387,3.04773 7.2594,2.63995 3.2728,-0.4646 6.5347,-1.00558 10.472,-1.61761 0.751,3.02075 1.5259,6.13812 2.3152,9.31357 0.2197,0.13586 0.4878,0.44699 0.7541,0.44558 20.0868,-0.10513 16.6797,0.96186 17.8382,-16.44146 0.7628,-11.45853 0.9034,-22.96256 1.1323,-34.45002 0.071,-3.56262 1.4359,-4.74606 4.9969,-5.1856 7.209,-0.88974 14.3318,-2.47757 21.4892,-3.77741 1.4223,7.83603 0.9438,8.52283 -6.5626,10.1041 -2.4196,0.5097 -4.844,1.07135 -7.1891,1.84341 -4.5314,1.49179 -4.0673,5.41544 -3.4054,8.72046 0.6654,3.32214 3.4598,3.38116 6.3196,2.42712 1.4019,-0.46774 2.9454,-0.501 4.3641,-0.93145 4.0917,-1.24149 4.5452,1.64825 5.38,4.42459 1.1423,3.7991 -1.8184,3.10028 -3.6779,3.48581 -2.1035,0.43612 -4.2608,0.60461 -6.3829,0.96038 -4.7571,0.79746 -6.6038,3.24549 -6.2499,7.88639 0.3423,4.48962 2.661,6.44391 7.1098,6.03756 1.3246,-0.12097 2.6743,0.0132 3.9946,-0.13214 7.2697,-0.8002 7.0674,-0.73404 9.8578,5.96631 0.7192,1.72687 3.2113,3.96427 4.7489,3.86209 4.2316,-0.28125 8.4514,-1.47906 12.5365,-2.75946 1.1821,-0.37051 2.6317,-2.20511 2.6987,-3.43704 0.4143,-7.62064 0.5833,-15.26035 0.6126,-22.89456 0.032,-8.32532 -0.3053,-16.65366 -0.1701,-24.97559 0.027,-1.64132 1.1343,-4.22979 2.3437,-4.6488 1.5977,-0.5535 4.4844,-0.0484 5.5941,1.14178 3.5847,3.84516 6.6924,8.151 9.8287,12.39405 3.9935,5.40298 7.8356,10.9179 11.7429,16.38452 0.5054,-0.11106 1.0106,-0.22214 1.516,-0.33322 0.212,-6.50821 0.3611,-13.01935 0.6591,-19.52365 0.1905,-4.15574 0.6131,-8.30057 0.9094,-12.45191 0.2136,-2.99365 1.7494,-4.64657 4.7946,-4.52804 3.0817,0.11999 4.7863,1.6495 4.8214,4.94088 0.1418,13.33173 0.3558,26.66266 0.5453,39.99387 0.024,1.66644 0.019,3.33472 0.099,4.99869 0.3316,6.89587 1.7888,8.0867 8.4043,6.99765 2.2922,-0.37741 4.6012,-0.96723 6.8978,-0.94684 6.9362,0.0615 9.2913,-2.65238 9.2973,-10.48554 0.012,-15.82086 -0.2649,-31.64315 -0.5579,-47.46237 -0.089,-4.7858 1.8916,-7.1965 6.7326,-7.17795 6.4511,0.0247 12.9638,-0.54132 19.337,0.16535 6.9473,0.77029 9.6719,4.00659 10.9293,10.88052 1.3833,7.56113 0.7506,14.75784 -3.1611,21.69019 -1.1156,1.97717 -1.2545,5.38589 -0.3281,7.46341 2.4071,5.39779 5.29,10.6849 8.7496,15.46084 1.3509,1.86469 4.6769,2.7851 7.2424,3.14575 2.5342,0.35627 5.2346,-0.66934 7.8786,-0.85656 6.3154,-0.44718 9.8613,-3.28571 11.5792,-9.83097 4.8191,-18.36105 10.4901,-36.49719 15.4609,-54.82077 0.9899,-3.64859 2.877,-6.40762 6.078,-5.87838 3.1573,0.52197 7.3781,2.56079 8.6348,5.14752 3.8785,7.98331 6.6068,16.53036 9.7021,24.88797 3.0383,8.20386 5.8273,16.50458 9.074,24.62347 0.771,1.9281 2.9068,4.66303 4.4583,4.69193 6.662,0.12417 13.3852,-0.32971 19.9665,-1.34729 1.0683,-0.16516 2.1522,-4.22864 2.178,-6.50223 0.2064,-18.16425 0.16,-36.33136 0.1908,-54.49759 0,-0.96646 2e-4,-1.93292 2e-4,-3.08914 5.4074,-0.70508 9.4733,-0.0263 12.7336,4.78866 4.529,6.68873 9.8809,12.8169 14.795,19.25043 1.3801,1.80692 2.4596,3.84345 3.6771,5.7746 0.7524,-0.49008 1.5047,-0.98016 2.257,-1.47025 0.5714,-8.9078 1.2646,-17.81009 1.6675,-26.72552 0.2341,-5.18518 1.8077,-8.95361 8.9314,-9.55759 1.3877,21.59757 2.7787,43.24533 4.2221,65.71124 3.3247,0 6.8113,0.32813 10.2156,-0.0617 10.0581,-1.15164 20.1137,-2.39856 30.1106,-3.98389 5.793,-0.9187 7.803,-3.63931 7.3179,-9.27756 -1.197,-13.90905 -2.5238,-27.80801 -3.9341,-41.6972 -0.614,-6.04666 -3.0367,-7.75064 -8.9941,-6.85312 -2.4372,0.36713 -4.8782,0.70911 -8,1.16147 v -5.31216 -4.5694 c 13.1479,-2.11362 26.0236,-4.2594 38.9266,-6.22656 6.7107,-1.02308 9.0083,0.71145 7.7722,6.17266 -0.4043,1.7862 -2.9053,4.00995 -4.7866,4.40091 -11.7681,2.44568 -13.1056,0.83185 -11.3533,16.61463 1.1924,10.73965 2.458,21.47406 3.4324,32.23419 0.8418,9.29858 3.7046,11.57287 12.8785,10.04367 6.5464,-1.09128 13.1321,-2.0459 19.7376,-2.66092 8.6539,-0.80572 10.8526,-2.58804 13.329,-11.17938 4.984,-17.29199 10.0942,-34.54761 15.1723,-51.81238 1.6113,-5.47836 4.5584,-9.45901 10.855,-9.93671 6.4325,-0.48797 9.2916,0.69699 11.8812,6.6763 6.8867,15.9018 13.5624,31.89725 20.1397,47.93018 3.3645,8.20126 4.2374,9.24179 13.2105,8.15552 18.2984,-2.21518 36.5865,-4.58267 54.8046,-7.37155 12.1441,-1.85904 12.575,-1.74442 13.9345,10.52267 3.2215,29.07083 6.7631,58.10697 9.8516,87.1915 2.985,28.10968 5.6967,56.25024 8.288,84.39935 3.0349,32.96796 6.0009,65.94464 8.6311,98.94666 1.7721,22.23523 2.9859,44.51648 4.3152,66.78515 1.7762,29.7544 2.9524,59.55304 5.2573,89.26514 2.2757,29.33264 5.8634,58.56113 8.4501,87.87283 2.1067,23.8709 3.5411,47.8006 5.3535,71.6982 2.1773,28.7086 4.4894,57.40715 6.6444,86.11735 1.1957,15.93 -16.058,7.7875 -14.9732,24.1774 -50.0207,0.4517 -75.2243,12.1305 -125.7138,12.1305 m -30.8812,-727.19522 c -5.7491,0.52026 -8.7774,3.96292 -10.0528,9.32028 -1.0185,4.27725 -2.0731,8.54593 -3.2702,13.47037 10.7048,-1.47205 20.8561,-2.75089 30.9454,-4.40833 1.2183,-0.20023 3.2543,-2.89847 2.9516,-3.67154 -1.9658,-5.02057 -3.6218,-10.6315 -7.1517,-14.3797 -1.8626,-1.97763 -7.303,-0.59256 -11.1286,-0.70596 -0.4948,-0.0147 -0.9931,0.0895 -2.2937,0.37488 m -146.947,38.59555 c 1.6684,-0.68906 3.3367,-1.37812 5.7456,-2.37305 -10.1969,-11.20181 -17.5241,-23.46777 -28.1786,-32.77905 -0.4972,0.27548 -0.9944,0.55096 -1.4917,0.82644 0.8467,12.05387 1.6934,24.10773 2.583,36.77259 7.3871,-0.87207 13.9428,-1.646 21.3417,-2.44693 M 1384.666,375.86639 c 1.1087,2.67187 2.6809,3.32571 5.7632,2.63748 6.4097,-1.43118 10.6917,-5.38303 13.4298,-10.7908 2.3859,-4.71198 2.8859,-10.11603 -1.1166,-14.39252 -3.6356,-3.88473 -8.2973,-5.57028 -13.8206,-4.18103 -3.8061,0.95731 -5.6969,3.20639 -5.5299,7.03653 0.2746,6.29401 0.7038,12.58127 1.2741,19.69034 m -217.7031,8.24448 c -0.2551,0.21325 -0.5538,0.39138 -0.7587,0.64517 -3.2061,3.97082 -4.1018,19.39721 -1.1299,23.42791 0.6524,0.88486 2.4952,1.53132 3.5975,1.31373 2.3842,-0.47068 4.8294,-1.25541 6.9184,-2.47757 5.2854,-3.09201 8.1483,-10.89386 6.1635,-15.95716 -2.0246,-5.16455 -7.9304,-8.27939 -14.7908,-6.95208 m -48.6547,19.57546 v 11.32404 c 8.3573,0.32468 13.7304,-3.49417 16.6822,-12.52756 1.5377,-4.70602 -2.0358,-8.42315 -5.2171,-10.90945 -2.1177,-1.65506 -6.0455,-1.72226 -8.9632,-1.25424 -1.1125,0.17843 -1.97,3.77481 -2.3896,5.92181 -0.4072,2.08255 -0.1034,4.30405 -0.1123,7.4454 m 356.1752,-7.56127 c 3.9857,-6.19211 -0.7262,-16.07984 -9.1947,-15.14737 -7.017,0.77261 -8.9407,1.82476 -10.9946,10.12799 -1.3734,5.55185 -0.092,7.37768 5.6322,7.00802 4.5964,-0.29687 9.1505,-1.25158 14.5571,-1.98864 m -76.7053,-5.90073 c -3.2634,-4.70691 -6.5761,-5.37576 -10.5021,-2.12039 -3.583,2.97088 -4.2745,14.14969 -0.977,17.49826 0.7423,0.75394 2.0131,1.58536 2.9285,1.47241 5.3292,-0.65759 10.6247,-1.58609 16.1584,-2.45886 -2.6264,-5.0557 -4.892,-9.41699 -7.6078,-14.39142 m -79.459,-0.57013 c -1.3862,-1.24838 -2.7725,-2.4968 -3.8123,-3.43317 0,7.85733 -0.2332,15.44675 0.082,23.0134 0.2121,5.10187 3.464,7.25394 8.1955,5.87921 2.9342,-0.85254 5.7476,-2.1207 9.4092,-3.50177 -4.6931,-7.52939 -9.0258,-14.4805 -13.8739,-21.95767 m 375.3362,-50.65765 c 3.8597,2.51577 8.6316,1.72415 11.0735,-1.83701 2.049,-2.98828 0.9695,-8.84412 -2.2716,-10.95099 -2.4895,-1.61825 -5.189,-2.05441 -6.3694,1.58185 -1.1094,3.41788 -1.8241,6.96384 -2.4325,11.20615 m -621.515,98.20916 c -5.3413,1.72654 -5.7585,5.98444 -5.7399,10.88843 3.0762,0 6.0138,0.53378 8.6238,-0.16162 2.2655,-0.60364 4.1601,-2.59875 6.2187,-3.97897 -1.4984,-1.99866 -2.8163,-4.18128 -4.5785,-5.9112 -0.775,-0.76089 -2.4547,-0.60046 -4.5241,-0.83664 m 393.2995,-64.53299 c 3.5166,-2.51333 3.3612,-10.83828 -0.3117,-13.05844 -0.5951,-0.35965 -2.1012,-0.42727 -2.2218,-0.17263 -1.5767,3.32504 -3.8255,6.66104 -4.1203,10.14532 -0.1881,2.2229 1.8236,6.04511 6.6538,3.08575 m -389.148,43.54166 c -0.1722,-0.20486 -0.3197,-0.44324 -0.5295,-0.5968 -0.076,-0.0556 -0.391,0.0464 -0.4442,0.15286 -2.1104,4.22577 -4.2033,8.46033 -6.3615,12.82089 6.4032,1.05271 11.1076,-1.85559 8.4227,-8.33569 -0.4362,-1.0528 -0.6568,-2.19495 -1.0875,-4.04126 z"
   id="path1427-4"
   style="fill:#ffffff"
   sodipodi:nodetypes="csssssssssssccssssssssscsccssscsssssscsssscssscsscsssscsscsssscsssscccssscsssssssssssssssscscsccsssccsssscsssssssssssssssssccssccsccssssscccssssssssssssssssssssssscccscssssccccccccsssssccssssscccssssccsssccssscccccscccssscccscsccscsccsccsc" /><path
   id="path1429-8"
   d="m 1767.0298,19.000699 c -5.8639,0.99895 -11.8645,2.00295 -17.3594,4.14844 -6.8651,2.68055 -11.4634,8.17177 -13.6973,15.31836 -1.8538,5.93061 2.0612,9.05065 6.0704,12.24218 3.2736,2.60612 7.0786,1.84274 8.5293,-2.09765 0.5104,-1.38611 0.7141,-2.89888 1.3203,-4.23438 3.1916,-7.03087 11.2485,-7.56645 15.9961,-1.30273 4.9167,6.48704 2.2771,13.791 2.5976,20.75586 0.2954,6.42279 -2.7723,10.70877 -8.6074,13.67969 -1.9594,0.99754 -3.682,4.24083 -3.834,6.5664 -0.1977,3.02307 1.7472,5.68942 5.5078,5.83399 5.0628,0.19463 7.6276,2.42001 7.5332,7.90039 -0.065,3.767951 1.1533,7.538771 1.4922,11.335931 0.9796,10.974 -1.6378,15.89019 -10.4062,19.6504 -1.748,-1.85601 -3.7981,-3.62174 -5.3262,-5.75977 -1.9526,-2.73216 -4.688,-3.77762 -7.0195,-1.90234 -1.6714,1.34439 -2.4722,4.36235 -2.6954,6.72461 -0.1687,1.78515 1.2041,3.70866 1.8653,5.58007 0.883,2.50057 1.7422,5.01034 2.664,7.66797 -3.0118,0.2843 -5.1914,0.48966 -7.7011,0.72656 0.034,-5.41507 -3.3973,-6.86305 -7.8711,-6.875 -2.6549,-0.007 -5.308,0.3275 -7.9649,0.36719 -4.4137,0.0659 -8.8296,0.0176 -13.2441,0.0176 0,-0.93152 -0.1508,-1.79164 0.023,-2.58008 3.1397,-14.20584 6.5248,-28.36121 9.4356,-42.613281 3.6272,-17.76098 3.0567,-35.68918 1.0312,-53.57617 -0.9446,-8.33996 -8.9449,-13.85263 -17.1797,-11.95899 -6.4359,1.48005 -12.9516,2.99001 -19.041,5.45313 -3.4001,1.37539 -8.0296,4.34844 -8.5644,7.25391 -1.3261,7.20263 -1.1303,14.82455 -0.5176,22.1914 0.3259,3.91733 4.5596,4.19462 8.0098,4.2461 3.5312,0.0527 3.9395,-2.65154 4.2226,-5.0918 0.3829,-3.30134 0.3816,-6.64859 0.4922,-9.97852 0.2391,-7.20192 3.1116,-10.27175 10.1914,-10.83593 2.5786,-0.20549 4.6449,0.13841 4.8399,3.44336 0.4689,7.94299 2.1542,15.98687 1.3925,23.79882 -2.37,24.30424 -5.51,48.537421 -8.6914,72.753911 -0.6535,4.97549 -1.7311,10.55712 -4.6094,14.33984 -1.8281,2.4028 -7.3461,1.99068 -11.205,2.85938 -2.0987,0.47243 -4.2246,0.86766 -6.2735,1.50586 -3.1016,0.9662 -4.3628,-0.60028 -4.6367,-3.30078 -1.0569,-10.42008 -2.1329,-20.84044 -3,-31.27735 -2.0644,-24.852921 -5.8719,-49.415211 -12.0469,-73.585931 -2.1683,-8.48793 -6.2252,-10.99194 -14.7734,-9.53711 -1.634,0.27807 -3.2438,0.70843 -4.8828,0.94336 -19.3008,2.76617 -24.1473,8.97771 -22.0293,28.2871 0.055,0.49641 0.1641,0.98602 0.2187,1.48243 1.835,16.68171 3.3877,33.400631 5.5801,50.035151 2.0297,15.39861 4.7438,30.70768 7.1836,46.22852 l -10.8281,1.26367 c 0.2092,-0.58223 0.4176,-1.16386 0.6269,-1.74609 -2.444,-1.43883 -4.7391,-3.55167 -7.373,-4.13868 -2.9813,-0.66444 -6.2654,0.0959 -9.4199,0.13477 -4.396,0.0541 -8.7932,0.0137 -13.3516,0.0137 0.1329,-1.18185 0.1442,-2.1839 0.3672,-3.13672 2.7126,-11.5869 5.7616,-23.10473 8.125,-34.76172 4.02,-19.82962 4.7366,-39.851901 2.3379,-59.968751 -1.0741,-9.00702 -8.6831,-14.83854 -17.4102,-12.85351 -6.4388,1.46455 -12.9557,2.97881 -19.041,5.44922 -3.3924,1.37719 -7.9911,4.38761 -8.5215,7.30273 -1.3112,7.20658 -1.1201,14.82927 -0.4726,22.19141 0.3409,3.8771 4.6015,4.15496 8.0566,4.17383 3.5493,0.0194 3.877,-2.7388 4.1621,-5.1543 0.3896,-3.30004 0.5235,-6.6537 0.4571,-9.97852 -0.1408,-7.02104 2.4427,-9.41744 10.2949,-10.73828 2.5884,-0.43538 4.5752,0.22323 4.7793,3.48242 0.4767,7.61277 2.2336,15.33291 1.4648,22.80274 -2.7728,26.937221 -6.3332,53.795361 -9.7734,80.660161 -0.2073,1.61842 -1.7254,4.09001 -3.0274,4.37695 -6.9986,1.54228 -14.1216,2.51894 -21.7148,3.77539 6.8485,-9.15363 7.5162,-14.91614 2.5723,-18.99609 -4.064,-3.35378 -15.2609,-2.74542 -19.125,0.75195 -3.3963,3.07399 -4.3128,7.02252 -3.1719,10.89648 1.0801,3.66788 3.5915,6.91274 5.1406,9.73828 -11.4664,2.40018 -23.799,4.98243 -35.6582,7.46485 -3.7146,-28.58042 -7.0034,-56.45605 -11.1309,-84.20703 -1.3724,-9.226691 -4.5405,-18.254831 -7.58,-27.136721 -1.5812,-4.61999 -4.2063,-4.62562 -7.9473,-1.38086 -4.9951,4.33276 -10.2222,8.40238 -15.1152,12.84375 -1.038,0.94214 -1.8398,3.27273 -1.4102,4.49023 1.2394,3.51185 7.2866,5.26061 10.6777,3.4043 1.694,-0.9273 3.2607,-2.09081 5.5079,-3.55273 2.1212,13.479331 4.257,26.344701 6.1484,39.246091 2.3129,15.77595 4.1614,31.62407 6.7031,47.36133 1.8118,11.21771 2.1741,11.15662 -9.2011,13.15039 -0.653,0.11444 -1.2796,0.36891 -1.9297,0.50586 -5.7144,1.20344 -11.4327,2.39534 -17.5196,3.66797 -1.7098,-15.66838 -3.6125,-30.33823 -4.8437,-45.06446 -1.7475,-20.90188 -5.231,-41.4631 -10.9453,-61.626951 -2.7386,-9.66294 -4.7543,-10.41194 -12.3418,-4.56836 -5.5652,4.28603 -10.696,9.13627 -16.7949,14.404301 3.2468,2.05371 5.8049,4.94653 8.4238,5.00195 3.1605,0.0669 6.3725,-2.27342 10.3906,-3.9082 4.683,32.33593 9.4092,64.96625 14.2246,98.21679 -6.2685,1.41866 -12.4565,2.81846 -18.9375,4.28516 -0.1006,-2.2108 0.2379,-4.17169 -0.3515,-5.79687 -1.2651,-3.48798 -2.2064,-7.65731 -4.7168,-10.01954 -6.0431,-5.6861 -15.6045,-0.63428 -16.7696,8.6836 -0.4692,3.75227 -0.078,7.61275 -0.078,11.51758 -8.2356,1.61161 -15.948,3.12156 -23.6309,4.625 -1.4887,-5.64596 -2.7702,-6.78071 -8.3339,-7.00586 -2.6452,-0.10703 -5.3083,0.3204 -7.9649,0.36132 -4.4021,0.0678 -8.8053,0.0195 -13.3652,0.0195 0.1241,-1.15201 0.1285,-2.15702 0.3515,-3.10938 2.7119,-11.58702 5.7559,-23.10539 8.1231,-34.76172 4.0268,-19.829 4.7413,-39.84925 2.3476,-59.96679 -1.0722,-9.011991 -8.681,-14.870201 -17.3886,-12.886721 -6.4385,1.46659 -12.9815,2.93336 -19.0313,5.466791 -3.4924,1.46244 -8.0709,4.64493 -8.6972,7.75196 -1.3792,6.84308 -0.9627,14.15632 -0.4903,21.22461 0.2763,4.13207 4.2588,4.49537 7.6934,4.71289 3.7242,0.2359 4.4508,-2.43982 4.6914,-5.15821 0.3818,-4.31051 0.2324,-8.67076 0.6601,-12.97461 0.4728,-4.75693 5.3567,-7.99578 11.0547,-7.83984 5.3881,0.14745 4.0181,4.73404 4.4766,7.44141 2.4778,14.63139 0.3757,29.23709 -1.332,43.75586 -2.1342,18.14379 -5.0099,36.19958 -7.4043,54.31445 -1.0614,8.02994 -1.9778,9.02534 -10.0743,9.49805 -2.5094,0.14653 -3.6347,-0.70759 -3.8886,-3.25391 -0.5935,-5.95141 -1.3725,-11.88579 -2.0938,-17.82422 -2.3227,-19.12535 -4.1881,-38.32239 -7.164,-57.3457 -1.6768,-10.71889 -4.8554,-21.25222 -8.0254,-31.66602 -1.4961,-4.9147 -4.3988,-5.17116 -8.2871,-1.9082 -5.1936,4.35847 -10.5046,8.58447 -15.5274,13.13086 -1.0289,0.93139 -1.7753,3.3056 -1.3262,4.52734 1.2996,3.53505 7.2942,5.23413 10.6895,3.36328 1.6949,-0.93394 3.2792,-2.06988 5.2324,-3.31836 0.5193,2.13996 1.079,3.84586 1.336,5.59571 4.3168,29.40337 8.5839,58.81421 12.9062,88.21679 0.3789,2.57808 -0.1483,4.06815 -3.0644,4.51758 -4.2491,0.65489 -8.4639,1.58831 -12.6504,2.58399 -23.2843,5.53779 -46.5545,11.13004 -69.3223,16.58203 -1.9642,-4.24618 -2.7022,-8.66484 -5.3027,-10.6836 -2.7265,-2.11633 -7.2129,-2.20683 -10.9903,-2.5957 -1.2729,-0.13109 -3.7784,1.38358 -3.9238,2.40234 -0.6666,4.67001 -0.6964,9.43099 -0.9746,14.51954 -4.9368,0.92817 -11.036,2.07568 -17.1367,3.22265 -2.5177,-21.57599 -4.59,-42.74112 -7.584,-63.77539 -1.9107,-13.42355 -5.02,-26.68951 -7.916,-39.95508 -1.4634,-6.7038 -6.1601,-10.95623 -10.5586,-10.15234 -6.188,1.13097 -12.3705,2.35726 -18.4707,3.88281 -8.4834,2.12151 -12.9586,7.22105 -12.6641,15.94727 0.3864,11.44568 1.5237,22.88192 2.7598,34.27734 1.7551,16.18275 3.7678,32.34049 5.9277,48.47461 0.9325,6.96502 2.5082,13.84406 3.7774,20.68359 -8.1999,2.0585 -16.2347,4.07697 -24.4239,6.13282 -0.7752,-5.9382 -1.5593,-11.85536 -2.3183,-17.77539 -2.6817,-20.9142 -4.9833,-41.8879 -8.2032,-62.71875 -1.4024,-9.07305 -4.394,-17.94821 -7.2363,-26.72852 -1.3349,-4.12417 -4.388,-4.43086 -7.7637,-1.62695 -5.3411,4.43642 -10.7628,8.78533 -15.9043,13.44336 -1.0084,0.91351 -1.6545,3.36459 -1.164,4.58008 1.4486,3.58999 7.2707,5.1359 10.7305,3.20703 1.6845,-0.93912 3.2797,-2.0403 5.75,-3.59375 4.6163,32.0574 9.1268,63.39271 13.6523,94.82031 -30.454,8.90761 -60.7389,17.13825 -91.8379,21.99609 -1.9502,1.41281 -3.7039,3.50165 -5.8809,4.13477 2.177,-0.63312 3.9306,-2.72223 5.4786,-4.18164 -5.0373,0.82062 -9.6726,1.68872 -14.47864,2.58789 -0.3962,-5.12994 -0.794,-9.92853 -1.1328,-14.73047 -0.9138,-12.95207 -1.79977,-25.90654 -2.70309,-38.85938 -1.08838,-15.60713 -2.36933,-31.20343 -3.19922,-46.82421 -0.42529,-8.00462 3.23432,-12.34005 10.91415,-14.33008 1.76,-0.4561 3.5506,-0.79334 5.3144,-1.23633 6.8865,-1.7297 7.533,-2.5328 7.6387,-9.66602 0.022,-1.49482 -0.017,-3.01309 -0.2461,-4.48632 -1.0651,-6.85124 -3.7682,-8.81117 -10.5684,-7.01758 -13.90711,3.66815 -27.78604,7.45777 -41.59767,11.46875 -11.06676,3.21383 -13.63873,10.55677 -7.83008,20.59765 4.88305,-0.57225 9.64643,-1.089 14.39649,-1.70312 3.07085,-0.39702 4.62518,0.83541 4.92968,3.93359 0.94141,9.58016 2.24292,19.13551 2.88086,28.73438 1.13727,17.11198 1.91571,34.24837 2.79492,51.37695 0.44159,8.60467 0.77558,17.21415 1.16797,26.04297 -12.98509,2.41778 -25.66371,4.77869 -39.04101,7.26953 0,-4.93258 0.16381,-9.40744 -0.0274,-13.86719 -0.79651,-18.58573 -6.29787,-34.19104 -25.89257,-41.02539 -3.66229,-1.27737 -5.32599,-4.40709 -6.0254,-8.41601 -2.67583,-15.33737 1.5293,-30.07285 3.59961,-44.98242 0.69348,-4.99376 4.91193,-6.57213 9.51368,-4.04102 4.01281,2.2072 4.74017,5.97039 5.01953,10.13867 0.46624,6.95697 1.07641,13.91545 2.01562,20.82031 0.19586,1.44017 1.86298,3.15124 3.27735,3.78125 0.87011,0.38758 3.1267,-0.7014 3.72851,-1.73046 0.91351,-1.56191 1.33576,-3.66732 1.25391,-5.50977 -0.31757,-7.14764 -0.47888,-14.34866 -1.56836,-21.39648 -0.7041,-4.55484 -1.73365,-10.00661 -4.67578,-13.09571 -9.84307,-10.33486 -25.41633,-6.20398 -30.01563,7.18164 -5.47027,15.92029 -5.28094,32.3519 -4.80664,48.82813 0.38031,13.21332 3.98884,17.7005 16.47266,22.15234 3.92034,1.39804 8.34674,3.34369 10.83984,6.41797 8.22503,10.14257 8.64038,21.50609 2.50781,32.91797 -1.18328,2.20181 -4.07385,5.37708 -5.58203,5.08008 -2.38336,-0.46933 -4.8147,-3.16755 -6.21289,-5.52344 -1.64379,-2.76983 -1.8244,-6.39136 -3.38476,-9.23437 -0.90808,-1.65448 -3.27802,-2.5076 -4.99024,-3.72071 -0.90063,1.51141 -2.49963,2.99271 -2.56836,4.54102 -0.198,4.46581 0.3681,8.96149 0.31836,13.4414 -0.0173,1.56558 -0.70184,4.32016 -1.51367,4.49219 -7.18218,1.522 -14.46119,2.58579 -22.1543,3.85742 0,-2.64309 0.0623,-4.29156 -0.0117,-5.93359 -0.24585,-5.45254 -0.84699,-5.83933 -6.38086,-4.75781 -4.23052,0.82684 -8.47674,1.59051 -12.74218,2.20508 -2.14661,0.30926 -4.47077,0.52416 -4.80078,-2.7129 -0.62201,-6.1028 -2.38947,-12.30838 -1.77539,-18.27539 1.72991,-16.80888 0.5757,-17.20828 17.1289,-21.04687 1.29956,-0.30136 3.10602,-2.13501 3.1836,-3.35156 0.34637,-5.43002 0.15039,-10.89413 0.15039,-16.92578 -6.09027,1.80927 -11.84071,3.51626 -17.84766,5.30078 -3.13183,-7.40321 -1.67926,-14.79615 -1.7832,-21.99805 -0.133,-9.20956 2.51056,-12.38346 11.36523,-14.85742 1.43109,-0.39984 3.15601,-0.38828 4.25391,-1.2168 2.54956,-1.92395 6.30829,-3.9171 6.86523,-6.47266 1.26886,-5.82247 0.9065,-12.00051 1.25391,-18.96093 -3.45422,0.94335 -5.52387,1.3461 -7.47461,2.07226 -6.49798,2.41888 -12.92097,5.04453 -19.43359,7.42188 -7.52502,2.74691 -8.46991,3.7573 -8.64649,11.88672 -0.79956,36.81673 -1.52716,73.63526 -2.27539,110.45312 -0.03,1.47833 -0.004,2.95697 -0.004,4.7832 -13.29368,2.47019 -26.34504,4.69852 -39.28906,7.43164 -3.51831,0.74289 -4.80322,-0.12546 -4.82422,-3.31054 -0.0811,-12.28798 -0.54052,-24.60161 0.0859,-36.85742 0.53986,-10.56133 2.19734,-11.66288 12.78125,-13.35743 4.37866,-0.70107 7.33166,-2.57761 7.10938,-7.66992 -0.18744,-4.29238 -0.0391,-8.59976 -0.0391,-14.00976 -6.83977,1.944 -13.18152,3.74704 -19.8164,5.63281 0,-4.02954 0.019,-7.68888 -0.002,-11.34766 -0.0897,-15.6969 -0.12968,-17.7576 16.29493,-21.81836 2.79607,-0.69126 6.43792,-3.98462 6.95507,-6.61328 1.07752,-5.47704 0.32617,-11.31279 0.32617,-17.625 -3.23418,0.7056 -5.03869,0.94306 -6.74023,1.49805 -6.9096,2.25363 -13.79835,4.57517 -20.67578,6.92578 -8.10217,2.76921 -8.82276,3.62853 -9.02734,12.03125 -0.80725,33.1495 -1.55091,66.30045 -2.30665,99.45117 -0.22949,10.06576 -0.71271,10.72062 -10.19335,13.32617 -5.88727,1.61801 -9.63941,-1.11331 -9.49415,-6.43359 0.62714,-22.97108 1.35297,-45.94576 1.47071,-68.92187 0.0494,-9.64764 -1.92664,-19.15896 -7.64258,-27.36133 -5.22436,-7.49702 -12.78517,-10.3775 -21.59766,-9.78321 -8.1837,0.5519 -11.87714,6.12535 -14.77148,13.26172 -4.95904,12.22747 -6.72424,24.95448 -7.29688,37.89844 -1.04022,23.51472 0.92256,46.83059 5.99219,70.7207 -8.98174,1.48126 -17.70637,3.11478 -26.50195,4.10157 -0.99231,0.11135 -2.97699,-3.28849 -3.44336,-5.30469 -0.48969,-2.11688 0.49622,-4.52854 0.48828,-6.81055 -0.0438,-12.6483 -0.40466,-25.29841 -0.25586,-37.94336 0.20777,-17.65446 0.85675,-35.30473 1.125,-52.95898 0.0787,-5.18078 -1.20771,-5.69159 -5.98242,-4.58203 -3.30926,0.76904 -3.66516,2.82352 -3.76563,5.47656 -0.97644,25.79895 -1.97192,51.59628 -2.96679,77.39453 -0.32074,8.31725 -0.46204,16.65043 -1.13477,24.93945 -0.15045,1.85343 -1.93665,4.8284 -3.40039,5.11914 -9.93279,1.97266 -19.95991,3.54216 -30.01758,4.72266 -1.30889,0.1537 -4.17181,-2.5992 -4.25976,-4.125 -0.43616,-7.56634 0.10522,-15.18711 -0.23242,-22.76367 -0.771,-17.29875 -1.77595,-34.58751 -2.84375,-51.87109 -0.48407,-7.83529 2.63886,-11.99052 10.57617,-13.51758 5.1159,-0.98429 10.20447,-2.10874 15.10547,-3.12891 0,-5.79846 0.12573,-10.96018 -0.0352,-16.11328 -0.15399,-4.93408 -1.79786,-6.03381 -6.53906,-5.55273 -17.4265,1.76824 -34.04281,6.71143 -50.48633,12.46093 -12.36913,4.32486 -12.40765,4.21336 -11.57617,17.29688 0.0212,0.33261 0.0694,0.66733 0.0508,0.99804 -0.19538,3.4707 1.88947,4.41355 4.77539,3.99024 3.43524,-0.50388 6.81977,-1.33588 10.23437,-1.98828 6.48919,-1.23981 8.30964,0.16971 8.79688,6.67969 0.88141,11.7769 2.01538,23.53947 2.625,35.33007 0.67938,13.14 0.91687,26.30415 1.28906,39.45899 0.1001,3.537 -0.6955,6.7304 -4.8164,7.5371 -3.552,0.6954 -7.19221,0.9527 -10.72852,1.709 -10.39098,2.2224 -10.23657,2.2485 -12.6875,-8.0645 -7.15404,-30.1021 -14.54694,-60.1487 -21.56055,-90.28316 -1.31768,-5.66138 -4.69397,-6.27717 -9.44726,-6.35157 -5.02069,-0.0786 -7.72199,2.03922 -8.55469,6.84766 -1.04553,6.03777 -1.98218,12.09711 -3.1582,18.10937 -5.72204,29.2533 -11.47352,58.50235 -17.33203,87.7285 -0.49732,2.4811 -1.8559,4.7891 -2.81446,7.1777 -2.32476,-3.3076 -4.02258,-6.4303 -4.51562,-9.7324 -2.59857,-17.40428 -4.89655,-34.85429 -7.29102,-52.28903 -1.67138,-12.16942 -3.21191,-24.35725 -5.10351,-36.49219 -0.32532,-2.08737 -1.66938,-4.52447 -3.31641,-5.80078 -4.62908,-3.58697 -8.87482,-1.10796 -10.50977,6.33984 -5.78292,26.34364 -11.37793,52.73044 -17.0625,79.09566 -1.67309,7.76 -3.22976,15.5506 -5.1914,23.2383 -0.99469,3.8982 -4.18976,6.7102 -8.05273,5.9531 -2.46444,-0.4829 -5.01751,-3.3268 -6.42382,-5.7539 -2.29657,-3.9634 -3.74842,-8.4274 -5.44922,-12.7226 -2.73203,-6.8995 -2.11151,-13.4941 1.56445,-19.9922 1.25925,-2.22601 2.18668,-4.94827 2.26758,-7.47656 0.31323,-9.79052 0.46624,-19.59983 0.21875,-29.39062 -0.26572,-10.51348 -5.47926,-16.18522 -15.70313,-18.80469 -8.01333,-2.0531 -15.38291,0.64563 -23.01562,2.03906 -5.23172,0.95511 -7.19058,3.43763 -7.04102,8.72266 0.59381,20.98084 0.92881,41.96877 1.32031,62.95505 0.16474,8.8279 0.39603,17.6618 0.21094,26.4844 -0.0386,1.8406 -1.41168,4.7928 -2.80859,5.2402 -3.44922,1.1047 -7.26569,1.1131 -10.94727,1.3692 -0.36254,0.025 -1.04266,-1.2467 -1.1875,-1.9922 -0.37561,-1.933 -0.71093,-3.905 -0.74804,-5.8672 -0.167,-8.8305 -0.15183,-17.6644 -0.34571,-26.4941 -0.14633,-6.6661 -2.89502,-9.6714 -8.24804,-9.3809 -8.27532,0.4491 -10.72348,3.0065 -10.03907,11.0156 3.0773,0.2744 6.24058,0.5555 9.58399,0.8535 0,6.8546 0.21435,14.0219 -0.13672,21.1602 -0.099,2.0123 -1.33655,4.735 -2.93555,5.7793 -9.10357,5.9459 -21.43185,-0.4241 -21.86718,-11.2363 -0.50245,-12.4794 -0.82187,-24.9704 -0.92579,-37.45902 -0.051,-6.13744 0.37665,-12.29764 0.9336,-18.41601 0.49176,-5.40237 6.53537,-11.16422 11.92969,-11.22071 1.33288,-0.014 2.9967,1.86139 3.93554,3.25391 0.76972,1.14169 0.4495,2.96433 1.04492,4.29101 0.75977,1.69287 1.95343,3.1898 2.96094,4.77149 1.64731,-1.21039 3.56546,-2.19232 4.84766,-3.71094 0.85846,-1.01675 1.2771,-2.85828 1.08984,-4.2207 -0.58523,-4.2583 -1.39798,-8.50184 -2.42187,-12.67774 -0.78366,-3.19598 -3.15241,-4.73568 -6.41602,-4.10937 -7.4761,1.43478 -15.00721,2.71796 -22.34766,4.68945 -8.57207,2.30234 -12.55956,8.9813 -11.48828,17.68164 0.40558,3.29367 0.68137,6.62119 0.72071,9.9375 0.17987,15.16475 0.0273,30.33769 0.45898,45.49409 0.23428,8.2256 -0.1126,16.7133 5.59766,25.3672 -5.10181,1.439 -9.46229,2.8898 -13.92578,3.8711 -5.40805,1.1889 -6.14762,0.4769 -6.02735,-5.0117 0.12729,-5.81 1.42489,-7.9726 -7.49219,-6.0254 -0.96823,0.2115 -1.9057,0.5646 -2.85742,0.8516 -11.65883,3.5156 -11.74368,3.5143 -11.63867,-8.3008 0.14185,-15.9595 -1.83305,-13.0568 12.84961,-18.2227 1.7377,-0.6113 4.17502,-1.7988 4.5625,-3.1972 1.07312,-3.8734 1.23343,-7.999 1.80273,-12.3926 -5.60934,0.7892 -10.33252,1.6357 -15.09179,2.002 -1.28748,0.099 -3.42398,-0.9178 -3.92188,-1.9981 -5.60723,-12.16562 -0.86153,-22.6011 11.98633,-26.86327 0.78378,-0.26001 1.53796,-0.61008 2.32031,-0.875 8.76238,-2.96765 10.99777,-8.78345 6.48633,-17.16992 -6.02126,1.64071 -12.05286,3.36298 -18.12695,4.92187 -10.48116,2.69007 -12.39386,4.97762 -12.70508,15.76172 -0.74017,25.6469 -1.40408,51.2964 -2.30469,76.9375 -0.0647,1.8416 -1.41482,4.7667 -2.82422,5.2422 -6.87423,2.3191 -13.94959,4.0668 -21.00195,5.8223 -2.67187,0.665 -4.77518,-0.049 -5.05273,-3.4297 -0.40751,-4.9637 -1.13575,-9.9026 -1.48243,-14.8692 -1.22825,-17.5963 -2.47559,-35.1933 -3.44922,-52.80466 -0.32917,-5.95452 2.24451,-8.9079 7.91407,-10.375 1.92065,-0.49698 3.89362,-0.80792 5.85742,-1.11328 7.85134,-1.22073 11.21096,-9.93879 6.08789,-16.32227 -0.72183,-0.89941 -2.8931,-1.23355 -4.21094,-0.95703 -7.12389,1.49478 -14.19661,3.24006 -21.2754,4.94532 -8.35692,2.01318 -16.75966,3.86844 -25.03125,6.18945 -4.96113,1.39209 -6.04501,4.70163 -4.76953,10.18359 1.1416,4.90646 3.81881,5.34256 8.15039,4.17578 3.7509,-1.01031 7.7568,-1.07568 12.06055,-1.60937 1.50253,26.48147 2.96689,52.30927 4.41992,77.91797 -10.88561,1.9056 -20.90031,3.6576 -30.71094,5.375 -0.52037,-4.6176 -1.22781,-8.7349 -1.4082,-12.875 -0.86291,-19.8054 -1.53359,-39.6197 -2.38281,-59.4258 -0.278,-6.48328 -0.69655,-12.97494 -1.4961,-19.40819 -0.18155,-1.46069 -2.10101,-3.65185 -3.41796,-3.80468 -2.00792,-0.23304 -4.97994,0.38644 -6.09766,1.79296 -1.4621,1.83988 -2.11586,4.80839 -2.07813,7.27539 0.25985,16.98922 0.82287,33.97282 1.1875,50.96092 0.042,1.9571 -0.45298,3.9484 -0.88867,5.8809 -0.13722,0.6086 -0.87308,1.4822 -1.36914,1.5058 -0.5666,0.027 -1.35327,-0.6432 -1.72266,-1.2168 -0.71221,-1.1058 -1.17585,-2.3689 -1.78124,-3.5468 -7.69833,-14.98 -15.23498,-30.0482 -23.29688,-44.83011 -1.15207,-2.11233 -4.77378,-3.55081 -7.41797,-3.85351 -1.10432,-0.12647 -2.92297,3.40433 -3.88281,5.51562 -0.64731,1.4238 -0.52901,3.2786 -0.46289,4.9297 0.4597,11.4807 1.05315,22.9561 1.49219,34.4375 0.57823,15.122 1.05435,30.2498 1.58203,45.5976 -8.83389,1.6976 -17.23759,3.3125 -25.86719,4.9707 -0.38493,-0.9549 -1.03023,-1.8335 -1.05469,-2.7285 -0.29968,-10.9709 -0.79342,-21.947 -0.67383,-32.916 0.16704,-15.3187 0.90276,-30.6323 1.11133,-45.9512 0.0228,-1.6714 -1.82156,-3.3676 -2.80078,-5.0527 -1.45855,1.5901 -3.33778,2.9747 -4.24414,4.834 -0.73833,1.5146 -0.35152,3.5962 -0.39844,5.4277 -0.44803,17.4901 -1.03206,34.9796 -1.25,52.4727 -0.0922,7.3971 0.75685,14.802 0.77344,22.2051 0.003,1.2776 -1.81165,3.3668 -3.14063,3.7109 -9.43379,2.442 -19.20123,3.8157 -28.38867,6.9277 -9.020719,3.0555 -17.478469,7.7693 -26.189449,11.7422 -18.17023,8.2872 -36.37136,16.5079 -54.50195,24.8809 -6.44659,2.9771 -12.72488,6.3172 -19.0800797,9.4922 1.38144,1.0911 2.3485897,1.1731 3.2988297,1.08 21.50933,-2.1058 43.05309,-3.9183 64.51367,-6.4414 20.93754,-2.4615 41.797519,-5.6027 62.677729,-8.539 23.99778,-3.3748 47.99723,-6.745 71.9668,-10.3125 27.73563,-4.1281 55.44162,-8.4523 83.15626,-12.7207 24.43452,-3.7633 48.87145,-7.5106 73.29102,-11.3692 26.21536,-4.1423 52.40371,-8.4597 78.61914,-12.6015 20.641,-3.2611 41.3296,-6.2242 61.95311,-9.5899 20.12266,-3.2839 40.18252,-6.9544 60.2832,-10.375 26.97007,-4.5895 53.96066,-9.0553 80.92774,-13.6621 23.69706,-4.0482 47.39193,-8.1085 71.05273,-12.3613 26.75065,-4.8081 53.56448,-9.3475 80.15821,-14.9219 22.32688,-4.68 44.22664,-11.43 66.58398,-15.9277 37.83913,-7.6125 75.86289,-14.32467 113.86133,-21.12306 31.82587,-5.69403 63.85047,-10.34541 95.56247,-16.59571 36.375,-7.1693 72.5001,-15.60444 108.7383,-23.46875 32.3463,-7.01968 64.6368,-14.3143 97.0664,-20.92578 30.0189,-6.11993 60.1224,-11.89213 90.3184,-17.05664 19.9442,-3.4111 40.1194,-5.4592 60.1875,-8.15039 19.2469,-2.58102 38.5002,-5.12928 57.7304,-7.83008 21.5188,-3.02212 43.038,-6.05225 64.5157,-9.34961 22.1186,-3.39573 44.1966,-7.06029 66.2753,-10.71094 24.8567,-4.10996 49.6838,-8.39537 74.543,-12.49023 15.707,-2.58731 31.422,-5.15531 47.1817,-7.39063 18.5704,-2.63401 37.2646,-4.45766 55.7773,-7.42773 28.1375,-4.51425 56.1714,-9.67705 84.2363,-14.63867 10.7251,-1.89613 21.4137,-3.99582 31.8965,-6.3418 -0.4083,-1.30952 -0.7079,-2.27547 -0.7617,-3.2539 0.054,0.97843 0.3546,1.94253 1.0937,3.26757 0.9948,0.34108 1.4356,0.32913 1.877,-0.15234 0,-26.48952 5e-4,-52.51131 -0.4219,-78.5332 -3.5105,0.55382 -6.6096,1.05871 -9.6855,1.67383 -13.6416,2.72798 -27.1667,6.79647 -40.9375,7.94335 -23.3821,1.94732 -46.5689,4.69568 -69.5117,9.54102 -2.9943,0.63235 -5.9609,1.39636 -7.9805,1.87305 -0.4535,-12.02882 -0.8444,-23.53601 -1.3399,-35.039071 -0.2232,-5.18054 -2.7419,-9.17652 -7.0625,-11.92187 -2.5352,-1.61104 -2.0222,-2.84231 -0.6621,-5.18555 2.0215,-3.48253 4.1464,-7.41235 4.4336,-11.28515 0.5474,-7.38123 0.226,-14.89709 -0.498,-22.28125 -0.5443,-5.55241 -1.9574,-11.08571 -3.5801,-16.44727 -1.6227,-5.3613 -6.9674,-8.62205 -12.4531,-7.6875 z m -122.4258,30.88281 c 3.2399,17.01085 6.9277,34.07621 9.6367,51.294931 2.3964,15.2321 3.6409,30.6435 5.5293,45.95898 0.5167,4.18951 -1.3487,5.49072 -5.1836,5.6875 -11.2202,0.57583 -13.0222,-0.93499 -13.8847,-12.18945 -1.7142,-22.36508 -5.3022,-44.428281 -10.6446,-66.210941 -0.2359,-0.96228 -0.2907,-1.96901 -0.4297,-2.95508 -0.4173,-1.97218 -0.721,-3.09267 -0.9062,-4.23242 -2.3721,-14.59575 0.039,-17.33874 15.8828,-17.35352 z M 1157.1938,150.92258 c 4.2586,26.62065 8.4006,52.50419 12.5411,78.38671 0.6986,7.51428 1.3787,14.11943 1.9648,20.73243 0.1,1.12291 -0.093,3.2496 -0.3437,3.27929 -4.3578,0.51511 -8.7438,0.95694 -13.129,1.02539 -2.8771,0.0449 -4.2019,-1.86552 -4.5195,-4.7207 -0.8619,-7.74772 -1.6079,-15.52216 -2.8691,-23.20898 -2.7058,-16.49282 -5.7465,-32.93143 -8.5645,-49.40625 -0.9752,-5.70163 -1.7245,-11.44186 -2.5273,-17.17188 -0.4403,-3.14196 0.9394,-5.00449 4.0722,-5.70117 4.0083,-0.89142 7.9877,-1.91293 13.375,-3.21484 z m -421.80859,87.95507 c 2.21412,-0.50944 4.82242,0.1494 7.43359,1.89063 6.8703,4.58146 8.53461,11.89963 8.4961,19.10156 -0.10407,19.44688 -1.01642,38.88985 -1.68555,58.33203 -0.13684,3.97558 -0.38049,7.97483 -0.98437,11.90039 -1.10639,7.19293 -6.1739,11.29603 -12.34766,15.12305 -1.62921,-3.89874 -3.11762,-7.45917 -4.60547,-11.01953 -5.55309,-23.92222 -7.0191,-47.38101 -5.29297,-71.00195 0.47363,-6.48059 1.77234,-13.08782 3.92188,-19.20508 1.03082,-2.93355 2.85033,-4.61166 5.06445,-5.1211 z m 747.66019,7.14649 c -28.9491,5.4116 -57.8942,10.88392 -86.709,16.95703 28.8148,-6.07311 57.7599,-11.54543 86.709,-16.95703 z m -121.0488,22.26367 c -3.7463,0.93236 -7.4327,2.16171 -11.0215,3.87109 3.5888,-1.70938 7.2752,-2.93873 11.0215,-3.87109 z m -185.9317,31.87109 c 3.0012,-0.0968 6.0273,0.24187 9.1543,1.06836 -3.127,-0.82649 -6.1531,-1.16521 -9.1543,-1.06836 z m 0,0 c -3.0012,0.0969 -5.9764,0.6283 -9.0039,1.54102 3.0275,-0.91272 6.0027,-1.44416 9.0039,-1.54102 z m -123.1972,7.63477 c 0.6734,-0.0935 1.4241,-0.0762 2.2461,0.0352 -1.644,-0.22274 -3.0077,-0.0689 -4.0254,0.59375 -1.0178,0.66266 -1.6886,1.83423 -1.9512,3.64648 0.2626,-1.81225 0.9334,-2.98382 1.9512,-3.64648 0.5088,-0.33134 1.1058,-0.53544 1.7793,-0.62891 z m -610.98053,0.39648 c 3.35713,-0.39228 6.55706,0.68143 8.67188,3.51953 2.7799,3.73062 4.18515,8.48533 6.19336,12.79102 3.42706,15.94206 -4.45177,30.87196 -16.96875,38.62111 -4.09125,2.5328 -7.92258,0.4124 -7.95703,-4.32033 -0.1019,-13.99107 -0.005,-27.98463 0.043,-41.97656 0.0153,-4.42266 3.21702,-6.40244 6.64258,-7.76563 1.11954,-0.4455 2.25596,-0.73837 3.375,-0.86914 z m 530.4707,1.2168 c -11.51196,3.36698 -23.06587,6.55236 -34.7461,9.16992 11.68023,-2.61756 23.23414,-5.80294 34.7461,-9.16992 z m -411.42383,1.26172 c 0.76355,0.0496 1.52551,0.0989 2.28906,0.14844 1.82403,6.93892 3.8739,13.83045 5.37891,20.83789 0.75854,3.53185 -4.29041,7.90243 -8.5625,8.01953 -3.51898,0.0965 -5.36597,-3.12067 -5.20313,-9.06445 2.10559,-7.21173 4.10187,-13.57646 6.09766,-19.94141 z m -56.20117,8.99023 c 1.30932,7.70108 2.61841,15.40245 3.92773,23.10352 -1.32059,2.59155 -2.10657,4.815 -3.66797,6.08789 -1.51968,1.23892 -4.70755,2.63287 -5.59961,1.94141 -1.48791,-1.15329 -2.682,-4.09507 -2.32617,-5.9668 1.35239,-7.11398 3.37488,-14.10047 5.14649,-21.13477 0.31576,-1.25387 0.62951,-2.50931 0.94335,-3.76367 0.52585,-0.0893 1.0503,-0.17831 1.57618,-0.26758 z m 60.36914,30.73828 c 1.51718,0.019 2.98431,0.28707 4.31054,0.82422 1.32697,0.53748 2.77656,2.01004 3.1875,3.35352 1.58826,5.19274 3.10962,10.45079 4.01758,15.79299 0.77436,4.5558 -1.86658,7.4551 -6.56055,8.2031 -5.5808,0.8893 -11.17249,1.7162 -16.76367,2.5391 -4.22607,0.6219 -5.49743,-0.6139 -4.71484,-4.7735 1.25207,-6.6553 2.62647,-13.2876 3.94922,-19.92966 3.01917,-3.88282 8.02268,-6.06667 12.57422,-6.00977 z m -61.18164,16.42973 c 3.66773,0.3119 7.31762,2.6419 7.99804,7.8281 1.51264,11.5298 0.62127,13.2331 -11.24218,15.3965 -2.94211,0.5365 -5.85365,1.2758 -8.8125,1.6757 -3.02609,0.409 -4.64914,-1.3915 -4.03321,-4.1503 1.17777,-5.2754 2.86936,-10.4364 4.34766,-15.6446 3.06161,-2.0045 5.44544,-4.0095 8.17773,-4.7754 1.11752,-0.3132 2.34188,-0.434 3.56446,-0.33 z m -61.09179,7.4375 c 2.02289,3.8012 3.97577,7.4707 5.92773,11.1386 1.42224,4.6664 2.65406,8.5676 4.15235,13.3106 -5.57608,1.2851 -11.0164,2.6424 -16.50586,3.7636 -2.85681,0.5836 -4.23618,-0.8304 -4.39063,-3.8125 -0.212,-4.0937 -1.35549,-8.2464 -0.88281,-12.2304 0.34622,-2.9185 2.22708,-5.9731 4.22266,-8.2735 1.47766,-1.7033 4.23938,-2.2929 7.47656,-3.8964 z m -256.37892,24.3183 c 6.28996,14.4504 12.58052,28.9004 19.23047,44.1778 -7.25123,1.0337 -13.55478,1.9335 -21.19922,3.0234 -0.2593,-10.4507 -0.50587,-20.4471 -0.7539,-30.4434 0.29586,-6.1435 0.58975,-11.2976 0.88476,-16.4511 z"
   style="fill:#ffffff" /><path
   fill="#010101"
   opacity="1"
   stroke="none"
   d="m 1727.128,1089.2969 c -0.552,-11.466 0.217,-9.6139 -9.979,-9.8527 -34.3178,-0.8038 -68.6565,-1.034 -102.9523,-2.3754 -32.4409,-1.2688 -64.8441,-3.5629 -97.2519,-5.5974 -19.2672,-1.2097 -38.539,-2.4922 -57.7576,-4.2889 -17.701,-1.6548 -35.3444,-3.9534 -52.9933,-6.1301 -17.1459,-2.1147 -34.3497,-3.935 -51.3793,-6.7768 -28.2729,-4.7181 -56.7897,-8.6881 -84.5571,-15.5791 -62.5594,-15.5251 -124.7875,-32.4055 -187.0259,-49.19638 -45.4632,-12.26526 -90.67751,-25.45373 -136.13302,-37.74896 -7.24719,-1.96027 -15.40063,-0.44702 -22.75073,-2.17481 -15.57837,-3.66223 -30.98126,-8.14483 -46.30853,-12.77911 -13.32245,-4.02808 -26.41608,-8.84705 -41.0022,-8.59705 -0.13019,-1.32592 -0.40973,-2.59369 -0.35498,-3.8468 1.17877,-26.9544 2.44574,-53.90509 3.58704,-80.86108 0.84564,-19.97235 1.62463,-39.94837 2.27972,-59.92786 1.48523,-45.29272 2.55628,-90.60162 4.40448,-135.87909 1.50769,-36.93286 3.85889,-73.83185 5.91602,-110.74139 0.86145,-15.45697 1.94836,-30.90119 2.89721,-46.35343 0.59223,-9.64486 1.34925,-10.10522 11.20014,-11.40185 22.87854,-3.01135 45.71283,-6.35825 68.56994,-9.53397 20.23041,-2.81076 40.46723,-5.57596 60.70181,-8.35714 7.7314,-1.06269 15.4819,-2.00181 23.1907,-3.20801 5.5301,-0.86533 7.0493,-2.92826 7.2456,-8.73551 0.4329,-12.81714 0.8304,-25.63614 1.3885,-38.44799 0.1686,-3.86976 0.059,-8.37052 6.5958,-7.33259 v 41.78949 c 2.0021,-0.37023 3.5708,-0.72155 5.1579,-0.94076 3.0587,-0.42243 5.4688,0.17663 6.7837,3.50967 1.1899,3.01636 2.4581,6.56998 6.6951,6.08988 4.9426,-0.56006 9.4147,-1.35016 11.0613,-7.71665 3.6768,-14.21612 8.1234,-28.23398 12.3059,-42.3179 0.9827,-3.30899 1.7095,-7.60119 6.0375,-7.42291 4.2971,0.17703 5.4107,4.14624 6.1415,7.92087 2.2037,11.38357 4.532,22.74304 6.7869,34.11682 1.2203,6.15518 3.567,8.07797 9.4531,7.64819 7.3948,-0.53995 9.3103,-2.48788 9.6061,-9.10483 0.7201,-16.10537 1.5705,-32.20489 2.3753,-48.44458 6.7209,0 13.5058,-0.23925 20.2509,0.17264 1.6332,0.0998 4.2828,2.17261 4.5077,3.63843 1.2635,8.23617 2.1852,16.76504 -3.3997,23.88644 -2.2424,2.85941 -5.72,4.89777 -8.9308,6.81479 -4.5869,2.73853 -7.5179,8.01331 -6.7545,13.2648 0.6611,4.54639 3.5914,6.69135 8.3215,6.05429 7.5641,-1.01873 15.1374,-1.98043 22.6842,-3.11486 4.8447,-0.72825 6.92,-3.70224 7.0149,-8.63147 0.2792,-14.49103 0.8988,-28.97571 1.1451,-43.46695 0.059,-3.50724 1.1156,-5.43476 4.727,-5.32801 6.4529,0.19065 13.042,-0.20099 19.2858,1.06907 2.5112,0.51083 5.7273,4.56024 6.1075,7.34292 1.7411,12.73801 -0.1233,21.69672 -14.3,25.07935 -6.4599,1.54138 -10.8191,11.65939 -7.4092,17.33236 1.0962,1.82352 4.4733,3.46967 6.6213,3.26368 10.0624,-0.96503 20.0928,-2.41214 30.065,-4.09891 3.9124,-0.66181 4.6407,-4.04679 4.7235,-7.6994 0.3022,-13.32404 0.9382,-26.64173 1.1334,-39.9664 0.071,-4.84324 1.9605,-7.45371 6.7285,-7.99326 6.2366,-0.70575 12.3039,-3.57468 18.8711,-1.76413 0.6319,4.87143 -1.0199,7.36462 -5.9155,7.87009 -2.7295,0.28183 -5.5231,1.19778 -7.9948,2.42029 -3.5658,1.76358 -4.5022,5.10556 -3.6314,8.82171 0.8441,3.60224 3.924,3.65631 6.7411,3.55066 2.7862,-0.10449 5.5566,-0.63235 8.6849,-1.01773 0.5481,4.46869 0.033,7.71115 -5.1552,8.38867 -2.1021,0.27457 -4.1926,0.97354 -6.1742,1.76505 -3.3961,1.35638 -5.5076,5.88583 -4.1931,9.06573 1.399,3.38388 4.3871,3.04773 7.2594,2.63996 3.2729,-0.4646 6.5348,-1.00559 10.4721,-1.61762 0.751,3.02075 1.5259,6.13812 2.3152,9.31357 0.2197,0.13586 0.4878,0.44699 0.7541,0.44559 20.0868,-0.10514 16.6797,0.96185 17.8381,-16.44147 0.7629,-11.45853 0.9035,-22.96256 1.1324,-34.45001 0.071,-3.56263 1.4359,-4.74607 4.9969,-5.18561 7.209,-0.88974 14.3318,-2.47757 21.4892,-3.77741 1.4223,7.83603 0.9438,8.52283 -6.5627,10.1041 -2.4195,0.5097 -4.844,1.07135 -7.1891,1.84341 -4.5313,1.49179 -4.0672,5.41544 -3.4053,8.72046 0.6654,3.32215 3.4598,3.38117 6.3195,2.42713 1.402,-0.46775 2.9455,-0.50101 4.3642,-0.93146 4.0916,-1.24149 4.5451,1.64825 5.38,4.42459 1.1423,3.7991 -1.8184,3.10028 -3.6779,3.48581 -2.1035,0.43613 -4.2608,0.60461 -6.3829,0.96039 -4.7571,0.79745 -6.6038,3.24548 -6.2499,7.88638 0.3423,4.48963 2.661,6.44391 7.1097,6.03757 1.3246,-0.12097 2.6744,0.0132 3.9947,-0.13214 7.2696,-0.8002 7.0674,-0.73404 9.8578,5.96631 0.7192,1.72686 3.2113,3.96426 4.7489,3.86209 4.2315,-0.28125 8.4514,-1.47907 12.5365,-2.75946 1.1821,-0.37052 2.6317,-2.20511 2.6987,-3.43705 0.4143,-7.62063 0.5832,-15.26034 0.6125,-22.89456 0.032,-8.32532 -0.3053,-16.65365 -0.17,-24.97558 0.027,-1.64133 1.1343,-4.2298 2.3436,-4.64881 1.5978,-0.55349 4.4845,-0.0484 5.5941,1.14179 3.5848,3.84515 6.6924,8.151 9.8288,12.39404 3.9935,5.40298 7.8355,10.91791 11.7429,16.38452 0.5054,-0.11105 1.0106,-0.22214 1.516,-0.33322 0.212,-6.50821 0.3611,-13.01935 0.659,-19.52365 0.1906,-4.15573 0.6132,-8.30057 0.9095,-12.45191 0.2136,-2.99365 1.7494,-4.64657 4.7945,-4.52804 3.0818,0.11999 4.7864,1.6495 4.8214,4.94089 0.1419,13.33172 0.3559,26.66266 0.5453,39.99386 0.024,1.66645 0.019,3.33472 0.099,4.99869 0.3315,6.89587 1.7888,8.0867 8.4043,6.99765 2.2922,-0.37741 4.6012,-0.96722 6.8978,-0.94684 6.9362,0.0615 9.2913,-2.65237 9.2973,-10.48553 0.012,-15.82086 -0.2649,-31.64316 -0.5579,-47.46237 -0.089,-4.7858 1.8916,-7.19651 6.7325,-7.17795 6.4512,0.0247 12.9639,-0.54132 19.3371,0.16534 6.9472,0.7703 9.6718,4.00659 10.9293,10.88053 1.3833,7.56112 0.7506,14.75784 -3.1611,21.69018 -1.1156,1.97717 -1.2546,5.3859 -0.3282,7.46341 2.4071,5.3978 5.2901,10.68491 8.7497,15.46085 1.3509,1.86468 4.6769,2.78509 7.2424,3.14575 2.5342,0.35626 5.2346,-0.66934 7.8785,-0.85657 6.3155,-0.44717 9.8614,-3.2857 11.5793,-9.83096 4.8191,-18.36106 10.4901,-36.49719 15.4609,-54.82077 0.9899,-3.64859 2.877,-6.40763 6.078,-5.87839 3.1572,0.52197 7.3781,2.56079 8.6348,5.14752 3.8785,7.98331 6.6068,16.53037 9.7021,24.88797 3.0382,8.20386 5.8273,16.50458 9.074,24.62348 0.771,1.9281 2.9067,4.66302 4.4582,4.69192 6.662,0.12418 13.3853,-0.32971 19.9666,-1.34729 1.0682,-0.16516 2.1522,-4.22864 2.178,-6.50223 0.2064,-18.16424 0.16,-36.33136 0.1908,-54.49759 0,-0.96646 2e-4,-1.93292 2e-4,-3.08914 5.4074,-0.70508 9.4733,-0.0262 12.7335,4.78867 4.5291,6.68872 9.881,12.81689 14.7951,19.25043 1.3801,1.80691 2.4596,3.84344 3.6771,5.77459 0.7523,-0.49008 1.5046,-0.98016 2.257,-1.47024 0.5714,-8.90781 1.2646,-17.81009 1.6674,-26.72553 0.2342,-5.18518 1.8078,-8.95361 8.9314,-9.55758 1.3877,21.59756 2.7787,43.24533 4.2222,65.71124 3.3247,0 6.8113,0.32812 10.2156,-0.0617 10.0581,-1.15164 20.1136,-2.39856 30.1106,-3.98388 5.793,-0.91871 7.803,-3.63932 7.3179,-9.27756 -1.1971,-13.90906 -2.5239,-27.80802 -3.9341,-41.69721 -0.614,-6.04666 -3.0368,-7.75064 -8.9942,-6.85312 -2.4371,0.36713 -4.8781,0.70911 -8,1.16147 v -5.31216 -4.5694 c 13.148,-2.11362 26.0237,-4.2594 38.9267,-6.22656 6.7107,-1.02307 9.0083,0.71146 7.7722,6.17267 -0.4043,1.78619 -2.9053,4.00995 -4.7866,4.40091 -11.7681,2.44568 -13.1056,0.83185 -11.3533,16.61462 1.1924,10.73966 2.458,21.47406 3.4324,32.23419 0.8418,9.29859 3.7046,11.57288 12.8785,10.04367 6.5464,-1.09127 13.1321,-2.04589 19.7376,-2.66092 8.6539,-0.80572 10.8526,-2.58804 13.3289,-11.17938 4.984,-17.29199 10.0943,-34.54761 15.1724,-51.81238 1.6113,-5.47836 4.5583,-9.45901 10.855,-9.9367 6.4325,-0.48798 9.2916,0.69699 11.8812,6.6763 6.8867,15.90179 13.5624,31.89725 20.1396,47.93017 3.3646,8.20127 4.2375,9.24179 13.2106,8.15552 18.2984,-2.21518 36.5864,-4.58267 54.8046,-7.37155 12.144,-1.85904 12.5749,-1.74442 13.9344,10.52267 3.2216,29.07084 6.7632,58.10697 9.8517,87.1915 2.985,28.10968 5.6967,56.25025 8.288,84.39935 3.0349,32.96796 6.0008,65.94465 8.6311,98.94666 1.7721,22.23523 2.9858,44.51648 4.3152,66.78516 1.7762,29.75439 2.9524,59.55304 5.2573,89.26513 2.2756,29.33264 5.8634,58.5611 8.4501,87.87281 2.1067,23.87091 3.5411,47.80066 5.3535,71.69824 2.1772,28.70868 4.4894,57.40716 6.6444,86.11746 1.1957,15.93 2.1901,14.1342 3.2749,30.5241 -50.021,0.4517 -100.042,3.1128 -150.5315,3.1128 m -24.3119,-724.52435 c -5.7491,0.52026 -8.7775,3.96292 -10.0528,9.32028 -1.0185,4.27725 -2.0732,8.54593 -3.2702,13.47037 10.7047,-1.47205 20.8561,-2.75089 30.9453,-4.40833 1.2184,-0.20022 3.2544,-2.89846 2.9517,-3.67154 -1.9658,-5.02056 -3.6218,-10.6315 -7.1517,-14.3797 -1.8626,-1.97763 -7.303,-0.59256 -11.1286,-0.70596 -0.4949,-0.0147 -0.9932,0.0895 -2.2937,0.37488 m -146.947,38.59555 c 1.6683,-0.68906 3.3367,-1.37811 5.7456,-2.37305 -10.1969,-11.20181 -17.5242,-23.46777 -28.1786,-32.77905 -0.4972,0.27548 -0.9944,0.55096 -1.4917,0.82645 0.8467,12.05386 1.6934,24.10772 2.583,36.77258 7.3871,-0.87207 13.9428,-1.646 21.3417,-2.44693 m -164.8545,-11.31174 c 1.1086,2.67188 2.6809,3.32572 5.7632,2.63748 6.4097,-1.43118 10.6916,-5.38302 13.4298,-10.7908 2.3859,-4.71197 2.8859,-10.11603 -1.1166,-14.39251 -3.6356,-3.88474 -8.2973,-5.57029 -13.8207,-4.18104 -3.806,0.95731 -5.6969,3.2064 -5.5299,7.03653 0.2747,6.29401 0.7039,12.58127 1.2742,19.69034 m -217.7031,8.24448 c -0.2552,0.21326 -0.5539,0.39139 -0.7587,0.64517 -3.2062,3.97083 -4.1018,19.39722 -1.1299,23.42792 0.6524,0.88486 2.4951,1.53131 3.5974,1.31372 2.3843,-0.47067 4.8295,-1.2554 6.9185,-2.47757 5.2854,-3.09201 8.1483,-10.89386 6.1634,-15.95715 -2.0245,-5.16455 -7.9304,-8.27939 -14.7907,-6.95209 m -48.6547,19.57547 v 11.32403 c 8.3573,0.32468 13.7304,-3.49417 16.6821,-12.52755 1.5378,-4.70603 -2.0357,-8.42316 -5.217,-10.90946 -2.1177,-1.65506 -6.0455,-1.72226 -8.9633,-1.25424 -1.1124,0.17844 -1.9699,3.77481 -2.3895,5.92181 -0.4072,2.08255 -0.1034,4.30405 -0.1123,7.44541 m 356.1752,-7.56128 c 3.9857,-6.19211 -0.7262,-16.07983 -9.1947,-15.14737 -7.017,0.77261 -8.9407,1.82477 -10.9946,10.12799 -1.3735,5.55185 -0.092,7.37769 5.6322,7.00803 4.5964,-0.29688 9.1505,-1.25159 14.5571,-1.98865 m -76.7053,-5.90073 c -3.2635,-4.70691 -6.5761,-5.37576 -10.5021,-2.12039 -3.583,2.97089 -4.2746,14.14969 -0.9771,17.49826 0.7423,0.75394 2.0132,1.58536 2.9286,1.47241 5.3291,-0.65759 10.6247,-1.58609 16.1583,-2.45886 -2.6263,-5.05569 -4.8919,-9.41699 -7.6077,-14.39142 m -79.459,-0.57013 c -1.3863,-1.24838 -2.7725,-2.49679 -3.8123,-3.43316 0,7.85733 -0.2333,15.44674 0.081,23.01339 0.2122,5.10187 3.464,7.25394 8.1956,5.87922 2.9342,-0.85254 5.7476,-2.1207 9.4092,-3.50177 -4.6931,-7.52939 -9.0258,-14.4805 -13.8739,-21.95768 m 375.3362,-50.65765 c 3.8597,2.51578 8.6315,1.72415 11.0734,-1.83701 2.0491,-2.98828 0.9695,-8.84411 -2.2716,-10.95098 -2.4895,-1.61826 -5.1889,-2.05442 -6.3693,1.58184 -1.1094,3.41788 -1.8241,6.96384 -2.4325,11.20615 m -621.5151,98.20917 c -5.3413,1.72653 -5.7584,5.98443 -5.7398,10.88843 3.0761,0 6.0138,0.53378 8.6238,-0.16163 2.2655,-0.60363 4.1601,-2.59875 6.2187,-3.97897 -1.4984,-1.99866 -2.8163,-4.18127 -4.5785,-5.91119 -0.775,-0.7609 -2.4547,-0.60047 -4.5242,-0.83664 M 1471.7876,373.783 c 3.5166,-2.51334 3.3612,-10.83829 -0.3118,-13.05844 -0.5951,-0.35965 -2.1012,-0.42728 -2.2218,-0.17264 -1.5766,3.32504 -3.8254,6.66104 -4.1202,10.14532 -0.1881,2.2229 1.8236,6.04511 6.6538,3.08576 m -389.1481,43.54165 c -0.1721,-0.20486 -0.3197,-0.44323 -0.5294,-0.5968 -0.076,-0.0556 -0.391,0.0464 -0.4442,0.15287 -2.1105,4.22576 -4.2034,8.46032 -6.3616,12.82089 6.4032,1.0527 11.1077,-1.85559 8.4228,-8.3357 -0.4362,-1.05279 -0.6568,-2.19494 -1.0876,-4.04126 z"
   id="path1427"
   sodipodi:nodetypes="csssssssssssccssssssssscsccsssssscssscsssssssscsscssssssscsssscsssscccssscsssssssssssssssscsssccsssscsssscsssssssssssssssssccssccsccsscsscccssssssssssssssssssssssscccscssssccccccccssssscccsssscccssssccsssccssscccccscccssscccscsccscsccsccsc" />
<path
   id="path1429"
   d="M 1771.3008 24.181641 C 1765.4369 25.180591 1759.4363 26.184593 1753.9414 28.330078 C 1747.0763 31.010628 1742.478 36.50185 1740.2441 43.648438 C 1738.3903 49.579055 1742.3053 52.699092 1746.3145 55.890625 C 1749.5881 58.496739 1753.3931 57.73336 1754.8438 53.792969 C 1755.3542 52.406858 1755.5579 50.894095 1756.1641 49.558594 C 1759.3557 42.527717 1767.4126 41.992141 1772.1602 48.255859 C 1777.0769 54.742902 1774.4373 62.046863 1774.7578 69.011719 C 1775.0532 75.43451 1771.9855 79.720493 1766.1504 82.691406 C 1764.191 83.688949 1762.4684 86.932238 1762.3164 89.257812 C 1762.1187 92.28088 1764.0636 94.947228 1767.8242 95.091797 C 1772.887 95.286431 1775.4518 97.511808 1775.3574 102.99219 C 1775.2926 106.76014 1776.5107 110.53096 1776.8496 114.32812 C 1777.8292 125.30212 1775.2118 130.21831 1766.4434 133.97852 C 1764.6954 132.12251 1762.6453 130.35678 1761.1172 128.21875 C 1759.1646 125.48659 1756.4292 124.44113 1754.0977 126.31641 C 1752.4263 127.6608 1751.6255 130.67876 1751.4023 133.04102 C 1751.2336 134.82617 1752.6064 136.74968 1753.2676 138.62109 C 1754.1506 141.12166 1755.0098 143.63143 1755.9316 146.28906 C 1752.9198 146.57336 1750.7402 146.77872 1748.2305 147.01562 C 1748.2649 141.60055 1744.8332 140.15257 1740.3594 140.14062 C 1737.7045 140.13354 1735.0514 140.46812 1732.3945 140.50781 C 1727.9808 140.57376 1723.5649 140.52539 1719.1504 140.52539 C 1719.1504 139.59387 1718.9996 138.73375 1719.1738 137.94531 C 1722.3135 123.73947 1725.6986 109.5841 1728.6094 95.332031 C 1732.2366 77.571055 1731.6661 59.642854 1729.6406 41.755859 C 1728.696 33.415899 1720.6957 27.903227 1712.4609 29.796875 C 1706.025 31.276919 1699.5093 32.786882 1693.4199 35.25 C 1690.0198 36.625391 1685.3903 39.598438 1684.8555 42.503906 C 1683.5294 49.706544 1683.7252 57.328461 1684.3379 64.695312 C 1684.6638 68.612644 1688.8975 68.889931 1692.3477 68.941406 C 1695.8789 68.994087 1696.2872 66.289872 1696.5703 63.849609 C 1696.9532 60.548274 1696.9519 57.201016 1697.0625 53.871094 C 1697.3016 46.669174 1700.1741 43.599338 1707.2539 43.035156 C 1709.8325 42.829673 1711.8988 43.173568 1712.0938 46.478516 C 1712.5627 54.421509 1714.248 62.465394 1713.4863 70.277344 C 1711.1163 94.581579 1707.9763 118.81476 1704.7949 143.03125 C 1704.1414 148.00674 1703.0638 153.58837 1700.1855 157.37109 C 1698.3574 159.77389 1692.8394 159.36177 1688.9805 160.23047 C 1686.8818 160.7029 1684.7559 161.09813 1682.707 161.73633 C 1679.6054 162.70253 1678.3442 161.13605 1678.0703 158.43555 C 1677.0134 148.01547 1675.9374 137.59511 1675.0703 127.1582 C 1673.0059 102.30528 1669.1984 77.742995 1663.0234 53.572266 C 1660.8551 45.084344 1656.7982 42.580335 1648.25 44.035156 C 1646.616 44.313228 1645.0062 44.743595 1643.3672 44.978516 C 1624.0664 47.744687 1619.2199 53.956234 1621.3379 73.265625 C 1621.3925 73.762032 1621.502 74.25164 1621.5566 74.748047 C 1623.3916 91.429762 1624.9443 108.14868 1627.1367 124.7832 C 1629.1664 140.18181 1631.8805 155.49088 1634.3203 171.01172 L 1623.4922 172.27539 C 1623.7014 171.69316 1623.9098 171.11153 1624.1191 170.5293 C 1621.6751 169.09047 1619.38 166.97763 1616.7461 166.39062 C 1613.7648 165.72618 1610.4807 166.48656 1607.3262 166.52539 C 1602.9302 166.57951 1598.533 166.53906 1593.9746 166.53906 C 1594.1075 165.35721 1594.1188 164.35516 1594.3418 163.40234 C 1597.0544 151.81544 1600.1034 140.29761 1602.4668 128.64062 C 1606.4868 108.811 1607.2034 88.788722 1604.8047 68.671875 C 1603.7306 59.66485 1596.1216 53.833333 1587.3945 55.818359 C 1580.9557 57.282915 1574.4388 58.797172 1568.3535 61.267578 C 1564.9611 62.644767 1560.3624 65.655192 1559.832 68.570312 C 1558.5208 75.776894 1558.7119 83.399581 1559.3594 90.761719 C 1559.7003 94.638821 1563.9609 94.91668 1567.416 94.935547 C 1570.9653 94.954926 1571.293 92.196752 1571.5781 89.78125 C 1571.9677 86.481212 1572.1016 83.127552 1572.0352 79.802734 C 1571.8944 72.781691 1574.4779 70.385291 1582.3301 69.064453 C 1584.9185 68.629075 1586.9053 69.287677 1587.1094 72.546875 C 1587.5861 80.159645 1589.343 87.879784 1588.5742 95.349609 C 1585.8014 122.28683 1582.241 149.14497 1578.8008 176.00977 C 1578.5935 177.62819 1577.0754 180.09978 1575.7734 180.38672 C 1568.7748 181.929 1561.6518 182.90566 1554.0586 184.16211 C 1560.9071 175.00848 1561.5748 169.24597 1556.6309 165.16602 C 1552.5669 161.81224 1541.37 162.4206 1537.5059 165.91797 C 1534.1096 168.99196 1533.1931 172.94049 1534.334 176.81445 C 1535.4141 180.48233 1537.9255 183.72719 1539.4746 186.55273 C 1528.0082 188.95291 1515.6756 191.53516 1503.8164 194.01758 C 1500.1018 165.43716 1496.813 137.56153 1492.6855 109.81055 C 1491.3131 100.58386 1488.145 91.555723 1485.1055 82.673828 C 1483.5243 78.053845 1480.8992 78.048206 1477.1582 81.292969 C 1472.1631 85.625727 1466.936 89.695347 1462.043 94.136719 C 1461.005 95.078864 1460.2032 97.409448 1460.6328 98.626953 C 1461.8722 102.1388 1467.9194 103.88756 1471.3105 102.03125 C 1473.0045 101.10395 1474.5712 99.940436 1476.8184 98.478516 C 1478.9396 111.95785 1481.0754 124.82322 1482.9668 137.72461 C 1485.2797 153.50056 1487.1282 169.34868 1489.6699 185.08594 C 1491.4817 196.30365 1491.844 196.24256 1480.4688 198.23633 C 1479.8158 198.35077 1479.1892 198.60524 1478.5391 198.74219 C 1472.8247 199.94563 1467.1064 201.13753 1461.0195 202.41016 C 1459.3097 186.74178 1457.407 172.07193 1456.1758 157.3457 C 1454.4283 136.44382 1450.9448 115.8826 1445.2305 95.71875 C 1442.4919 86.055812 1440.4762 85.306814 1432.8887 91.150391 C 1427.3235 95.43642 1422.1927 100.28666 1416.0938 105.55469 C 1419.3406 107.6084 1421.8987 110.50122 1424.5176 110.55664 C 1427.6781 110.62353 1430.8901 108.28322 1434.9082 106.64844 C 1439.5912 138.98437 1444.3174 171.61469 1449.1328 204.86523 C 1442.8643 206.28389 1436.6763 207.68369 1430.1953 209.15039 C 1430.0947 206.93959 1430.4332 204.9787 1429.8438 203.35352 C 1428.5787 199.86554 1427.6374 195.69621 1425.127 193.33398 C 1419.0839 187.64788 1409.5225 192.6997 1408.3574 202.01758 C 1407.8882 205.76985 1408.2793 209.63033 1408.2793 213.53516 C 1400.0437 215.14677 1392.3313 216.65672 1384.6484 218.16016 C 1383.1597 212.5142 1381.8782 211.37945 1376.3145 211.1543 C 1373.6693 211.04727 1371.0062 211.4747 1368.3496 211.51562 C 1363.9475 211.58343 1359.5443 211.53516 1354.9844 211.53516 C 1355.1085 210.38315 1355.1129 209.37814 1355.3359 208.42578 C 1358.0478 196.83876 1361.0918 185.32039 1363.459 173.66406 C 1367.4858 153.83506 1368.2003 133.81481 1365.8066 113.69727 C 1364.7344 104.68528 1357.1256 98.827066 1348.418 100.81055 C 1341.9795 102.27714 1335.4365 103.74391 1329.3867 106.27734 C 1325.8943 107.73978 1321.3158 110.92227 1320.6895 114.0293 C 1319.3103 120.87238 1319.7268 128.18562 1320.1992 135.25391 C 1320.4755 139.38598 1324.458 139.74928 1327.8926 139.9668 C 1331.6168 140.2027 1332.3434 137.52698 1332.584 134.80859 C 1332.9658 130.49808 1332.8164 126.13783 1333.2441 121.83398 C 1333.7169 117.07705 1338.6008 113.8382 1344.2988 113.99414 C 1349.6869 114.14159 1348.3169 118.72818 1348.7754 121.43555 C 1351.2532 136.06694 1349.1511 150.67264 1347.4434 165.19141 C 1345.3092 183.3352 1342.4335 201.39099 1340.0391 219.50586 C 1338.9777 227.5358 1338.0613 228.5312 1329.9648 229.00391 C 1327.4554 229.15044 1326.3301 228.29632 1326.0762 225.75 C 1325.4827 219.79859 1324.7037 213.86421 1323.9824 207.92578 C 1321.6597 188.80043 1319.7943 169.60339 1316.8184 150.58008 C 1315.1416 139.86119 1311.963 129.32786 1308.793 118.91406 C 1307.2969 113.99936 1304.3942 113.7429 1300.5059 117.00586 C 1295.3123 121.36433 1290.0013 125.59033 1284.9785 130.13672 C 1283.9496 131.06811 1283.2032 133.44232 1283.6523 134.66406 C 1284.9519 138.19911 1290.9465 139.89819 1294.3418 138.02734 C 1296.0367 137.0934 1297.621 135.95746 1299.5742 134.70898 C 1300.0935 136.84894 1300.6532 138.55484 1300.9102 140.30469 C 1305.227 169.70806 1309.4941 199.1189 1313.8164 228.52148 C 1314.1953 231.09956 1313.6681 232.58963 1310.752 233.03906 C 1306.5029 233.69395 1302.2881 234.62737 1298.1016 235.62305 C 1274.8173 241.16084 1251.5471 246.75309 1228.7793 252.20508 C 1226.8151 247.9589 1226.0771 243.54024 1223.4766 241.52148 C 1220.7501 239.40515 1216.2637 239.31465 1212.4863 238.92578 C 1211.2134 238.79469 1208.7079 240.30936 1208.5625 241.32812 C 1207.8959 245.99813 1207.8661 250.75911 1207.5879 255.84766 C 1202.6511 256.77583 1196.5519 257.92334 1190.4512 259.07031 C 1187.9335 237.49432 1185.8612 216.32919 1182.8672 195.29492 C 1180.9565 181.87137 1177.8472 168.60541 1174.9512 155.33984 C 1173.4878 148.63604 1168.7911 144.38361 1164.3926 145.1875 C 1158.2046 146.31847 1152.0221 147.54476 1145.9219 149.07031 C 1137.4385 151.19182 1132.9633 156.29136 1133.2578 165.01758 C 1133.6442 176.46326 1134.7815 187.8995 1136.0176 199.29492 C 1137.7727 215.47767 1139.7854 231.63541 1141.9453 247.76953 C 1142.8778 254.73455 1144.4535 261.61359 1145.7227 268.45312 C 1137.5228 270.51162 1129.488 272.53009 1121.2988 274.58594 C 1120.5236 268.64774 1119.7395 262.73058 1118.9805 256.81055 C 1116.2988 235.89635 1113.9972 214.92265 1110.7773 194.0918 C 1109.3749 185.01875 1106.3833 176.14359 1103.541 167.36328 C 1102.2061 163.23911 1099.153 162.93242 1095.7773 165.73633 C 1090.4362 170.17275 1085.0145 174.52166 1079.873 179.17969 C 1078.8646 180.0932 1078.2185 182.54428 1078.709 183.75977 C 1080.1576 187.34976 1085.9797 188.89567 1089.4395 186.9668 C 1091.124 186.02768 1092.7192 184.9265 1095.1895 183.37305 C 1099.8058 215.43045 1104.3163 246.76576 1108.8418 278.19336 C 1078.3878 287.10097 1048.1029 295.33161 1017.0039 300.18945 C 1015.0537 301.60226 1013.3 303.6911 1011.123 304.32422 C 1013.3 303.6911 1015.0536 301.60199 1016.6016 300.14258 C 1011.5643 300.9632 1006.929 301.8313 1002.123 302.73047 C 1001.7268 297.60053 1001.329 292.80194 1000.9902 288 C 1000.0764 275.04793 999.19043 262.09346 998.28711 249.14062 C 997.19873 233.53349 995.91778 217.93719 995.08789 202.31641 C 994.6626 194.31179 998.32221 189.97636 1006.002 187.98633 C 1007.762 187.53023 1009.5526 187.19299 1011.3164 186.75 C 1018.2029 185.0203 1018.8494 184.2172 1018.9551 177.08398 C 1018.9772 175.58916 1018.938 174.07089 1018.709 172.59766 C 1017.6439 165.74642 1014.9408 163.78649 1008.1406 165.58008 C 994.23353 169.24823 980.3546 173.03785 966.54297 177.04883 C 955.47621 180.26266 952.90424 187.6056 958.71289 197.64648 C 963.59594 197.07423 968.35932 196.55748 973.10938 195.94336 C 976.18023 195.54634 977.73456 196.77877 978.03906 199.87695 C 978.98047 209.45711 980.28198 219.01246 980.91992 228.61133 C 982.05719 245.72331 982.83563 262.8597 983.71484 279.98828 C 984.15643 288.59295 984.49042 297.20243 984.88281 306.03125 C 971.89772 308.44903 959.2191 310.80994 945.8418 313.30078 C 945.8418 308.3682 946.00561 303.89334 945.81445 299.43359 C 945.01794 280.84786 939.51658 265.24255 919.92188 258.4082 C 916.25959 257.13083 914.59589 254.00111 913.89648 249.99219 C 911.22065 234.65482 915.42578 219.91934 917.49609 205.00977 C 918.18957 200.01601 922.40802 198.43764 927.00977 200.96875 C 931.02258 203.17595 931.74994 206.93914 932.0293 211.10742 C 932.49554 218.06439 933.10571 225.02287 934.04492 231.92773 C 934.24078 233.3679 935.9079 235.07897 937.32227 235.70898 C 938.19238 236.09656 940.44897 235.00758 941.05078 233.97852 C 941.96429 232.41661 942.38654 230.3112 942.30469 228.46875 C 941.98712 221.32111 941.82581 214.12009 940.73633 207.07227 C 940.03223 202.51743 939.00268 197.06566 936.06055 193.97656 C 926.21748 183.6417 910.64422 187.77258 906.04492 201.1582 C 900.57465 217.07849 900.76398 233.5101 901.23828 249.98633 C 901.61859 263.19965 905.22712 267.68683 917.71094 272.13867 C 921.63128 273.53671 926.05768 275.48236 928.55078 278.55664 C 936.77581 288.69921 937.19116 300.06273 931.05859 311.47461 C 929.87531 313.67642 926.98474 316.85169 925.47656 316.55469 C 923.0932 316.08536 920.66186 313.38714 919.26367 311.03125 C 917.61988 308.26142 917.43927 304.63989 915.87891 301.79688 C 914.97083 300.1424 912.60089 299.28928 910.88867 298.07617 C 909.98804 299.58758 908.38904 301.06888 908.32031 302.61719 C 908.12231 307.083 908.68841 311.57868 908.63867 316.05859 C 908.62134 317.62417 907.93683 320.37875 907.125 320.55078 C 899.94282 322.07278 892.66381 323.13657 884.9707 324.4082 C 884.9707 321.76511 885.03302 320.11664 884.95898 318.47461 C 884.71313 313.02207 884.11199 312.63528 878.57812 313.7168 C 874.3476 314.54364 870.10138 315.30731 865.83594 315.92188 C 863.68933 316.23114 861.36517 316.44604 861.03516 313.20898 C 860.41315 307.10618 858.64569 300.9006 859.25977 294.93359 C 860.98968 278.12471 859.83547 277.72531 876.38867 273.88672 C 877.68823 273.58536 879.49469 271.75171 879.57227 270.53516 C 879.91864 265.10514 879.72266 259.64103 879.72266 253.60938 C 873.63239 255.41865 867.88195 257.12564 861.875 258.91016 C 858.74317 251.50695 860.19574 244.11401 860.0918 236.91211 C 859.9588 227.70255 862.60236 224.52865 871.45703 222.05469 C 872.88812 221.65485 874.61304 221.66641 875.71094 220.83789 C 878.2605 218.91394 882.01923 216.92079 882.57617 214.36523 C 883.84503 208.54276 883.48267 202.36472 883.83008 195.4043 C 880.37586 196.34765 878.30621 196.7504 876.35547 197.47656 C 869.85749 199.89544 863.4345 202.52109 856.92188 204.89844 C 849.39686 207.64535 848.45197 208.65574 848.27539 216.78516 C 847.47583 253.60189 846.74823 290.42042 846 327.23828 C 845.96997 328.71661 845.99609 330.19525 845.99609 332.02148 C 832.70241 334.49167 819.65105 336.72 806.70703 339.45312 C 803.18872 340.19601 801.90381 339.32766 801.88281 336.14258 C 801.8017 323.8546 801.34229 311.54097 801.96875 299.28516 C 802.50861 288.72383 804.16609 287.62228 814.75 285.92773 C 819.12866 285.22666 822.08166 283.35012 821.85938 278.25781 C 821.67194 273.96543 821.82031 269.65805 821.82031 264.24805 C 814.98054 266.19205 808.63879 267.99509 802.00391 269.88086 C 802.00391 265.85132 802.02289 262.19198 802.00195 258.5332 C 801.91229 242.8363 801.87227 240.7756 818.29688 236.71484 C 821.09295 236.02358 824.7348 232.73022 825.25195 230.10156 C 826.32947 224.62452 825.57812 218.78877 825.57812 212.47656 C 822.34394 213.18216 820.53943 213.41962 818.83789 213.97461 C 811.92829 216.22824 805.03954 218.54978 798.16211 220.90039 C 790.05994 223.6696 789.33935 224.52892 789.13477 232.93164 C 788.32752 266.08114 787.58386 299.23209 786.82812 332.38281 C 786.59863 342.44857 786.11541 343.10343 776.63477 345.70898 C 770.7475 347.32699 766.99536 344.59567 767.14062 339.27539 C 767.76776 316.30431 768.49359 293.32963 768.61133 270.35352 C 768.66071 260.70588 766.68469 251.19456 760.96875 242.99219 C 755.74439 235.49517 748.18358 232.61469 739.37109 233.20898 C 731.18739 233.76088 727.49395 239.33433 724.59961 246.4707 C 719.64057 258.69817 717.87537 271.42518 717.30273 284.36914 C 716.26251 307.88386 718.22529 331.19973 723.29492 355.08984 C 714.31318 356.5711 705.58855 358.20462 696.79297 359.19141 C 695.80066 359.30276 693.81598 355.90292 693.34961 353.88672 C 692.85992 351.76984 693.84583 349.35818 693.83789 347.07617 C 693.79407 334.42787 693.43323 321.77776 693.58203 309.13281 C 693.7898 291.47835 694.43878 273.82808 694.70703 256.17383 C 694.78571 250.99305 693.49932 250.48224 688.72461 251.5918 C 685.41535 252.36084 685.05945 254.41532 684.95898 257.06836 C 683.98254 282.86731 682.98706 308.66464 681.99219 334.46289 C 681.67145 342.78014 681.53015 351.11332 680.85742 359.40234 C 680.70697 361.25577 678.92077 364.23074 677.45703 364.52148 C 667.52424 366.49411 657.49712 368.0636 647.43945 369.24414 C 646.13056 369.3978 643.26764 366.64496 643.17969 365.11914 C 642.74353 357.5528 643.28491 349.93203 642.94727 342.35547 C 642.17627 325.05672 641.17132 307.76796 640.10352 290.48438 C 639.61945 282.64909 642.74238 278.49386 650.67969 276.9668 C 655.79559 275.98251 660.88416 274.85806 665.78516 273.83789 C 665.78516 268.03943 665.91089 262.87771 665.75 257.72461 C 665.59601 252.79053 663.95214 251.6908 659.21094 252.17188 C 641.78444 253.94012 625.16813 258.88331 608.72461 264.63281 C 596.35548 268.95767 596.31696 268.84617 597.14844 281.92969 C 597.16962 282.2623 597.21783 282.59702 597.19922 282.92773 C 597.00384 286.39843 599.08869 287.34128 601.97461 286.91797 C 605.40985 286.41409 608.79438 285.58209 612.20898 284.92969 C 618.69817 283.68988 620.51862 285.0994 621.00586 291.60938 C 621.88727 303.38628 623.02124 315.14885 623.63086 326.93945 C 624.31024 340.07945 624.54773 353.2436 624.91992 366.39844 C 625.02002 369.93545 624.22442 373.12885 620.10352 373.93555 C 616.55152 374.63092 612.91131 374.88822 609.375 375.64453 C 598.98402 377.86694 599.13843 377.89306 596.6875 367.58008 C 589.53346 337.47794 582.14056 307.43134 575.12695 277.29688 C 573.80927 271.6355 570.43298 271.01971 565.67969 270.94531 C 560.659 270.86676 557.9577 272.98453 557.125 277.79297 C 556.07947 283.83074 555.14282 289.89008 553.9668 295.90234 C 548.24476 325.15564 542.49328 354.40469 536.63477 383.63086 C 536.13745 386.11194 534.77887 388.41996 533.82031 390.80859 C 531.49555 387.50098 529.79773 384.37823 529.30469 381.07617 C 526.70612 363.67186 524.40814 346.22185 522.01367 328.78711 C 520.34229 316.61769 518.80176 304.42986 516.91016 292.29492 C 516.58484 290.20755 515.24078 287.77045 513.59375 286.49414 C 508.96467 282.90717 504.71893 285.38618 503.08398 292.83398 C 497.30106 319.17762 491.70605 345.56442 486.02148 371.92969 C 484.34839 379.68969 482.79172 387.48023 480.83008 395.16797 C 479.83539 399.06619 476.64032 401.87814 472.77734 401.12109 C 470.3129 400.63812 467.75983 397.79422 466.35352 395.36719 C 464.05695 391.40378 462.6051 386.93972 460.9043 382.64453 C 458.17227 375.74509 458.79279 369.15048 462.46875 362.65234 C 463.728 360.42633 464.65543 357.70407 464.73633 355.17578 C 465.04956 345.38526 465.20257 335.57595 464.95508 325.78516 C 464.68936 315.27168 459.47582 309.59994 449.25195 306.98047 C 441.23862 304.92737 433.86904 307.6261 426.23633 309.01953 C 421.00461 309.97464 419.04575 312.45716 419.19531 317.74219 C 419.78912 338.72303 420.12412 359.71096 420.51562 380.69727 C 420.68036 389.52517 420.91165 398.35902 420.72656 407.18164 C 420.68793 409.02228 419.31488 411.9744 417.91797 412.42188 C 414.46875 413.52658 410.65228 413.53497 406.9707 413.79102 C 406.60816 413.81622 405.92804 412.54434 405.7832 411.79883 C 405.40759 409.86582 405.07227 407.89386 405.03516 405.93164 C 404.86816 397.10111 404.88333 388.2672 404.68945 379.4375 C 404.54312 372.7714 401.79443 369.76614 396.44141 370.05664 C 388.16609 370.50577 385.71793 373.06318 386.40234 381.07227 C 389.47964 381.34662 392.64292 381.62772 395.98633 381.92578 C 395.98633 388.7803 396.20068 395.94764 395.84961 403.08594 C 395.75064 405.09826 394.51306 407.82092 392.91406 408.86523 C 383.81049 414.81115 371.48221 408.44118 371.04688 397.62891 C 370.54443 385.14958 370.22501 372.6585 370.12109 360.16992 C 370.07007 354.03248 370.49774 347.87228 371.05469 341.75391 C 371.54645 336.35154 377.59006 330.58969 382.98438 330.5332 C 384.31726 330.51923 385.98108 332.39459 386.91992 333.78711 C 387.68964 334.9288 387.36942 336.75144 387.96484 338.07812 C 388.72461 339.77099 389.91827 341.26792 390.92578 342.84961 C 392.57309 341.63922 394.49124 340.65729 395.77344 339.13867 C 396.6319 338.12192 397.05054 336.28039 396.86328 334.91797 C 396.27805 330.65967 395.4653 326.41613 394.44141 322.24023 C 393.65775 319.04425 391.289 317.50455 388.02539 318.13086 C 380.54929 319.56564 373.01818 320.84882 365.67773 322.82031 C 357.10566 325.12265 353.11817 331.80161 354.18945 340.50195 C 354.59503 343.79562 354.87082 347.12314 354.91016 350.43945 C 355.09003 365.6042 354.9375 380.77715 355.36914 395.93359 C 355.60342 404.15914 355.25654 412.64683 360.9668 421.30078 C 355.86499 422.73978 351.50451 424.19055 347.04102 425.17188 C 341.63297 426.36078 340.8934 425.64871 341.01367 420.16016 C 341.14096 414.35013 342.43856 412.18756 333.52148 414.13477 C 332.55325 414.34622 331.61578 414.69934 330.66406 414.98633 C 319.00523 418.50198 318.92038 418.50066 319.02539 406.68555 C 319.16724 390.72606 317.19234 393.62872 331.875 388.46289 C 333.6127 387.85153 336.05002 386.66409 336.4375 385.26562 C 337.51062 381.39222 337.67093 377.26663 338.24023 372.87305 C 332.63089 373.66226 327.90771 374.50876 323.14844 374.875 C 321.86096 374.97406 319.72446 373.95721 319.22656 372.87695 C 313.61933 360.71132 318.36503 350.27584 331.21289 346.01367 C 331.99667 345.75366 332.75085 345.40359 333.5332 345.13867 C 342.29558 342.17102 344.53097 336.35522 340.01953 327.96875 C 333.99827 329.60946 327.96667 331.33173 321.89258 332.89062 C 311.41142 335.58069 309.49872 337.86824 309.1875 348.65234 C 308.44733 374.2992 307.78342 399.9487 306.88281 425.58984 C 306.81815 427.43142 305.46799 430.35654 304.05859 430.83203 C 297.18436 433.15118 290.109 434.89884 283.05664 436.6543 C 280.38477 437.31934 278.28146 436.60531 278.00391 433.22461 C 277.5964 428.26099 276.86816 423.32202 276.52148 418.35547 C 275.29324 400.75911 274.0459 383.16215 273.07227 365.55078 C 272.7431 359.59626 275.31678 356.64288 280.98633 355.17578 C 282.90698 354.6788 284.87995 354.36786 286.84375 354.0625 C 294.69509 352.84177 298.05471 344.12371 292.93164 337.74023 C 292.20981 336.84082 290.03854 336.50668 288.7207 336.7832 C 281.59681 338.27798 274.5241 340.02326 267.44531 341.72852 C 259.08839 343.7417 250.68565 345.59696 242.41406 347.91797 C 237.45293 349.31006 236.36905 352.6196 237.64453 358.10156 C 238.78613 363.00802 241.46334 363.44412 245.79492 362.27734 C 249.54582 361.26703 253.55172 361.20166 257.85547 360.66797 C 259.358 387.14942 260.82236 412.97723 262.27539 438.58594 C 251.38978 440.49151 241.37508 442.24353 231.56445 443.96094 C 231.04408 439.3433 230.33664 435.22607 230.15625 431.08594 C 229.29334 411.28054 228.62266 391.46623 227.77344 371.66016 C 227.49544 365.17686 227.07689 358.6852 226.27734 352.25195 C 226.09579 350.79126 224.17633 348.6001 222.85938 348.44727 C 220.85146 348.21423 217.87944 348.83371 216.76172 350.24023 C 215.29962 352.08011 214.64586 355.04862 214.68359 357.51562 C 214.94344 374.50481 215.50646 391.48848 215.87109 408.47656 C 215.9131 410.43368 215.41811 412.4249 214.98242 414.35742 C 214.8452 414.96603 214.10934 415.83969 213.61328 415.86328 C 213.04668 415.89023 212.26001 415.22003 211.89062 414.64648 C 211.17841 413.54065 210.71477 412.27759 210.10938 411.09961 C 202.41105 396.11961 194.8744 381.05141 186.8125 366.26953 C 185.66043 364.1572 182.03872 362.71872 179.39453 362.41602 C 178.29021 362.28955 176.47156 365.82035 175.51172 367.93164 C 174.86441 369.35544 174.98271 371.21027 175.04883 372.86133 C 175.50853 384.34203 176.10198 395.81742 176.54102 407.29883 C 177.11925 422.42085 177.59537 437.54863 178.12305 452.89648 C 169.28916 454.59402 160.88546 456.20893 152.25586 457.86719 C 151.87093 456.91223 151.22563 456.03369 151.20117 455.13867 C 150.90149 444.16774 150.40775 433.19161 150.52734 422.22266 C 150.69438 406.90392 151.4301 391.59038 151.63867 376.27148 C 151.66142 374.60007 149.81711 372.90381 148.83789 371.21875 C 147.37934 372.80884 145.50011 374.19348 144.59375 376.05273 C 143.85542 377.56735 144.24223 379.6489 144.19531 381.48047 C 143.74728 398.97056 143.16325 416.46004 142.94531 433.95312 C 142.85315 441.35021 143.70216 448.75513 143.71875 456.1582 C 143.7216 457.43585 141.9071 459.52509 140.57812 459.86914 C 131.14433 462.31112 121.37689 463.68488 112.18945 466.79688 C 103.16873 469.85238 94.710982 474.5661 86 478.53906 C 67.829768 486.82622 49.628639 495.04698 31.498047 503.41992 C 25.051463 506.39706 18.773172 509.73713 12.417969 512.91211 C 13.799408 514.00323 14.76656 514.08521 15.716797 513.99219 C 37.226126 511.88635 58.769892 510.07382 80.230469 507.55078 C 101.16801 505.08924 122.02799 501.94803 142.9082 499.01172 C 166.90598 495.63694 190.90543 492.26678 214.875 488.69922 C 242.61063 484.57117 270.31662 480.24694 298.03125 475.97852 C 322.46577 472.21528 346.9027 468.46792 371.32227 464.60938 C 397.53763 460.46705 423.72598 456.14962 449.94141 452.00781 C 470.58241 448.74674 491.27102 445.78366 511.89453 442.41797 C 532.01719 439.13404 552.07705 435.46353 572.17773 432.04297 C 599.1478 427.45347 626.13839 422.98767 653.10547 418.38086 C 676.80253 414.33265 700.4974 410.2723 724.1582 406.01953 C 750.90885 401.2114 777.72268 396.67205 804.31641 391.09766 C 826.64329 386.41767 848.54305 379.66769 870.90039 375.16992 C 908.73952 367.55744 946.76328 360.84527 984.76172 354.04688 C 1016.5876 348.35285 1048.6122 343.70147 1080.3242 337.45117 C 1116.6992 330.28187 1152.8243 321.84673 1189.0625 313.98242 C 1221.4088 306.96274 1253.6993 299.66812 1286.1289 293.05664 C 1316.1478 286.93671 1346.2513 281.16451 1376.4473 276 C 1396.3915 272.5889 1416.5667 270.5408 1436.6348 267.84961 C 1455.8817 265.26859 1475.135 262.72033 1494.3652 260.01953 C 1515.884 256.99741 1537.4032 253.96728 1558.8809 250.66992 C 1580.9995 247.27419 1603.0775 243.60963 1625.1562 239.95898 C 1650.0129 235.84902 1674.84 231.56361 1699.6992 227.46875 C 1715.4062 224.88144 1731.1212 222.31344 1746.8809 220.07812 C 1765.4513 217.44411 1784.1455 215.62046 1802.6582 212.65039 C 1830.7957 208.13614 1858.8296 202.97334 1886.8945 198.01172 C 1897.6196 196.11559 1908.3082 194.0159 1918.791 191.66992 C 1918.3827 190.3604 1918.0831 189.39445 1918.0293 188.41602 C 1918.0831 189.39445 1918.3839 190.35855 1919.123 191.68359 C 1920.1178 192.02467 1920.5586 192.01272 1921 191.53125 C 1921 165.04173 1921.0005 139.01994 1920.5781 112.99805 C 1917.0676 113.55187 1913.9685 114.05676 1910.8926 114.67188 C 1897.251 117.39986 1883.7259 121.46835 1869.9551 122.61523 C 1846.573 124.56255 1823.3862 127.31091 1800.4434 132.15625 C 1797.4491 132.7886 1794.4825 133.55261 1792.4629 134.0293 C 1792.0094 122.00048 1791.6185 110.49329 1791.123 98.990234 C 1790.8998 93.80969 1788.3811 89.813711 1784.0605 87.068359 C 1781.5253 85.457323 1782.0383 84.226049 1783.3984 81.882812 C 1785.4199 78.40028 1787.5448 74.470462 1787.832 70.597656 C 1788.3794 63.216431 1788.058 55.700574 1787.334 48.316406 C 1786.7897 42.763998 1785.3766 37.230702 1783.7539 31.869141 C 1782.1312 26.507843 1776.7865 23.247092 1771.3008 24.181641 z M 1648.875 55.064453 C 1652.1149 72.0753 1655.8027 89.140657 1658.5117 106.35938 C 1660.9081 121.59148 1662.1526 137.00288 1664.041 152.31836 C 1664.5577 156.50787 1662.6923 157.80908 1658.8574 158.00586 C 1647.6372 158.58169 1645.8352 157.07087 1644.9727 145.81641 C 1643.2585 123.45133 1639.6705 101.38813 1634.3281 79.605469 C 1634.0922 78.64319 1634.0374 77.636458 1633.8984 76.650391 C 1633.4811 74.678209 1633.1774 73.557716 1632.9922 72.417969 C 1630.6201 57.822223 1633.0308 55.079231 1648.875 55.064453 z M 1161.4648 156.10352 C 1165.7234 182.72417 1169.8654 208.60771 1174.0059 234.49023 C 1174.7045 242.00451 1175.3846 248.60966 1175.9707 255.22266 C 1176.0702 256.34557 1175.8777 258.47226 1175.627 258.50195 C 1171.2692 259.01706 1166.8832 259.45889 1162.498 259.52734 C 1159.6209 259.57227 1158.2961 257.66182 1157.9785 254.80664 C 1157.1166 247.05892 1156.3706 239.28448 1155.1094 231.59766 C 1152.4036 215.10484 1149.3629 198.66623 1146.5449 182.19141 C 1145.5697 176.48978 1144.8204 170.74955 1144.0176 165.01953 C 1143.5773 161.87757 1144.957 160.01504 1148.0898 159.31836 C 1152.0981 158.42694 1156.0775 157.40543 1161.4648 156.10352 z M 739.65625 244.05859 C 741.87037 243.54915 744.47867 244.20799 747.08984 245.94922 C 753.96014 250.53068 755.62445 257.84885 755.58594 265.05078 C 755.48187 284.49766 754.56952 303.94063 753.90039 323.38281 C 753.76355 327.35839 753.5199 331.35764 752.91602 335.2832 C 751.80963 342.47613 746.74212 346.57923 740.56836 350.40625 C 738.93915 346.50751 737.45074 342.94708 735.96289 339.38672 C 730.4098 315.4645 728.94379 292.00571 730.66992 268.38477 C 731.14355 261.90418 732.44226 255.29695 734.5918 249.17969 C 735.62262 246.24614 737.44213 244.56803 739.65625 244.05859 z M 1487.3164 251.20508 C 1458.3673 256.61668 1429.4222 262.089 1400.6074 268.16211 C 1429.4222 262.089 1458.3673 256.61668 1487.3164 251.20508 z M 1366.2676 273.46875 C 1362.5213 274.40111 1358.8349 275.63046 1355.2461 277.33984 C 1358.8349 275.63046 1362.5213 274.40111 1366.2676 273.46875 z M 1180.3359 305.33984 C 1183.3371 305.24299 1186.3632 305.58171 1189.4902 306.4082 C 1186.3632 305.58171 1183.3371 305.24299 1180.3359 305.33984 z M 1180.3359 305.33984 C 1177.3347 305.4367 1174.3595 305.96814 1171.332 306.88086 C 1174.3595 305.96814 1177.3347 305.4367 1180.3359 305.33984 z M 1057.1387 312.97461 C 1057.8121 312.88114 1058.5628 312.8984 1059.3848 313.00977 C 1057.7408 312.78703 1056.3771 312.94085 1055.3594 313.60352 C 1054.3416 314.26618 1053.6708 315.43775 1053.4082 317.25 C 1053.6708 315.43775 1054.3416 314.26618 1055.3594 313.60352 C 1055.8682 313.27218 1056.4652 313.06808 1057.1387 312.97461 z M 446.1582 313.37109 C 449.51533 312.97881 452.71526 314.05252 454.83008 316.89062 C 457.60998 320.62124 459.01523 325.37595 461.02344 329.68164 C 464.4505 345.6237 456.57167 360.5536 444.05469 368.30273 C 439.96344 370.83554 436.13211 368.71511 436.09766 363.98242 C 435.99576 349.99135 436.09219 335.99779 436.14062 322.00586 C 436.15594 317.5832 439.35764 315.60342 442.7832 314.24023 C 443.90274 313.79473 445.03916 313.50186 446.1582 313.37109 z M 976.62891 314.58789 C 965.11695 317.95487 953.56304 321.14025 941.88281 323.75781 C 953.56304 321.14025 965.11695 317.95487 976.62891 314.58789 z M 565.20508 315.84961 C 565.96863 315.89917 566.73059 315.94849 567.49414 315.99805 C 569.31817 322.93697 571.36804 329.8285 572.87305 336.83594 C 573.63159 340.36779 568.58264 344.73837 564.31055 344.85547 C 560.79157 344.95193 558.94458 341.7348 559.10742 335.79102 C 561.21301 328.57929 563.20929 322.21456 565.20508 315.84961 z M 509.00391 324.83984 C 510.31323 332.54092 511.62232 340.24229 512.93164 347.94336 C 511.61105 350.53491 510.82507 352.75836 509.26367 354.03125 C 507.74399 355.27017 504.55612 356.66412 503.66406 355.97266 C 502.17615 354.81937 500.98206 351.87759 501.33789 350.00586 C 502.69028 342.89188 504.71277 335.90539 506.48438 328.87109 C 506.80014 327.61722 507.11389 326.36178 507.42773 325.10742 C 507.95358 325.01813 508.47803 324.92911 509.00391 324.83984 z M 569.37305 355.57812 C 570.89023 355.59709 572.35736 355.86519 573.68359 356.40234 C 575.01056 356.93982 576.46015 358.41238 576.87109 359.75586 C 578.45935 364.9486 579.98071 370.20664 580.88867 375.54883 C 581.66303 380.10467 579.02209 383.00397 574.32812 383.75195 C 568.74732 384.64124 563.15563 385.46817 557.56445 386.29102 C 553.33838 386.91293 552.06702 385.67715 552.84961 381.51758 C 554.10168 374.86225 555.47608 368.22994 556.79883 361.58789 C 559.818 357.70507 564.82151 355.52122 569.37305 355.57812 z M 508.19141 372.00781 C 511.85914 372.31974 515.50903 374.64973 516.18945 379.83594 C 517.70209 391.36577 516.81072 393.06903 504.94727 395.23242 C 502.00516 395.76898 499.09362 396.5083 496.13477 396.9082 C 493.10868 397.3172 491.48563 395.51666 492.10156 392.75781 C 493.27933 387.48249 494.97092 382.3215 496.44922 377.11328 C 499.51083 375.10874 501.89466 373.10373 504.62695 372.33789 C 505.74447 372.02465 506.96883 371.90384 508.19141 372.00781 z M 447.09961 379.44531 C 449.1225 383.24658 451.07538 386.91605 453.02734 390.58398 C 454.44958 395.25039 455.6814 399.15155 457.17969 403.89453 C 451.60361 405.17969 446.16329 406.53693 440.67383 407.6582 C 437.81702 408.24173 436.43765 406.82776 436.2832 403.8457 C 436.0712 399.75193 434.92771 395.59927 435.40039 391.61523 C 435.74661 388.69672 437.62747 385.64215 439.62305 383.3418 C 441.10071 381.63843 443.86243 381.04886 447.09961 379.44531 z M 190.7207 403.76367 C 197.01066 418.21401 203.30122 432.66402 209.95117 447.94141 C 202.69994 448.97519 196.39639 449.875 188.75195 450.96484 C 188.49265 440.51411 188.24608 430.51772 187.99805 420.52148 C 188.29391 414.37797 188.5878 409.22384 188.88281 404.07031 L 190.7207 403.76367 z " />

<path
   fill="#060304"
   opacity="1.000000"
   stroke="none"
   d=" M1256.666138,169.745178   C1262.235840,169.227386 1267.425903,168.041687 1272.450928,168.534927   C1275.323730,168.816925 1278.897339,171.256729 1280.390503,173.772507   C1282.001587,176.487122 1278.103394,182.577469 1275.077148,183.162231   C1264.179810,185.267899 1253.272583,187.365097 1242.304321,189.041992   C1237.445190,189.784897 1232.337524,182.711105 1233.989990,178.109985   C1234.246338,177.396225 1234.868408,176.500305 1235.516968,176.289154   C1242.394287,174.049774 1249.311279,171.932007 1256.666138,169.745178  z"
   id="path1433" />






















<path
   fill="#091720"
   opacity="1"
   stroke="none"
   d="m 1877.3943,1067.7102 c 14.3468,0.323 28.6937,0.6462 43.5089,0.9843 0.4685,4.0141 0.4685,8.0133 0.4685,11.9725 -640,0 -1279.99995,0 -1919.999951,0 0,-34.7018 0,-69.361 0.19462,-104.84957 0.35766,-2.63354 0.65635,-4.43713 0.66327,-6.24188 0.0953,-24.88056 0.15055,-49.76123 0.2156,-74.64191 29.30074,-13.66449 59.69158,-24.58716 90.780341,-33.10132 21.41577,-5.86505 43.47039,-9.76135 65.46105,-13.06103 22.04433,-3.3078 44.31999,-5.45923 66.57314,-6.89496 29.41151,-1.89764 58.89753,-3.54736 88.35554,-3.61817 52.47388,-0.12603 104.9216,1.50507 157.16489,7.19538 27.47912,2.99304 55.19293,4.36401 82.46271,8.62878 47.9898,7.50501 95.8756,15.88629 143.51519,25.3584 46.81317,9.30786 93.26606,20.42841 140.58655,30.80927 10.97687,2.88635 21.23901,5.73608 31.51264,8.544 44.64635,12.2027 89.30035,24.37738 133.94331,36.59241 55.0811,15.07098 110.0763,30.46295 165.2525,45.1774 54.3527,14.4948 108.6626,29.3674 164.4403,37.577 27.4409,4.039 55.006,7.2768 82.5593,10.4958 20.4511,2.3892 40.956,4.3689 61.4699,6.1513 18.1979,1.5811 36.436,2.7226 54.667,3.8921 8.9569,0.5744 17.945,0.6502 26.9068,1.165 21.0627,1.2097 42.1087,2.7411 63.1796,3.766 14.1202,0.6868 28.2714,0.7422 42.4093,1.0559 30.6068,0.6791 61.2119,1.4463 91.8212,1.9813 27.4642,0.4802 54.9325,0.7447 82.4,1.0113 13.1615,0.1276 26.3251,0.041 39.4878,0.051 z"
   id="path1218" /></svg>
