<svg id="Layer_1" data-name="Layer 1" xmlns="http://www.w3.org/2000/svg" viewBox="0 0 395.41 83.63"><defs><style>.cls-1{fill:#002135;}</style></defs><path class="cls-1" d="M360.5,379.89h15v15h-15v-15ZM480.66,441.2c0,2.63-.88,11.2-12.29,11.2-6.56,0-8.9-3.94-8.9-7.32,0-4.31,3.08-6.59,8.9-6.59h7.28a15.87,15.87,0,0,0,4.6-.53l.42-.13v3.37Zm-9.72-37c-8.6,0-17,2.84-22.49,7.6l-.52.46,6.56,10.34.7-.55c3.23-2.59,8.47-5.65,14.88-5.65,4,0,10.59,1.05,10.59,8.05v.85c0,1.55-.52,2.59-3.07,2.59H465.82c-12.89,0-20.59,6.56-20.59,17.55s8.08,18,20.59,18c5.67,0,11-1.87,14.29-5l.55-.53v4.1h13.75V424.7c0-12.43-9.22-20.46-23.5-20.46m-43.24,39.48a14.57,14.57,0,0,1-13.26,7.6c-9.38,0-15.93-7.16-15.93-17.4s6.7-17.51,15.93-17.51A14.56,14.56,0,0,1,427.67,424l.38.65,11.86-6-.39-.72c-4.45-8.3-14.3-13.66-25.1-13.66-17,0-29.81,12.76-29.81,29.69s12.81,29.57,29.81,29.57c10.8,0,20.65-5.37,25.1-13.66l.39-.72-11.86-6.07-.38.65ZM361.85,462h13.64V405.69H353.61v11.57h8.24V462m-30.49-82.15H345V462H331.36V379.89Zm-38,71.6c-9.38,0-16.17-7.42-16.17-17.64s6.8-17.51,16.17-17.51,16.17,7.37,16.17,17.51-6.81,17.64-16.17,17.64m2-47.25c-6.51,0-13.28,2.75-17.24,7l-.57.65v-.84c0-2.86,0-5.94,0-8.9V379.89H263.91V462h13.62V456l.57.64c3.88,4.25,10.35,6.89,16.95,6.89,16.5,0,28.46-12.48,28.46-29.69s-11.87-29.56-28.23-29.56m-63.2,0c-7.11,0-13.43,3-18.7,8.95l-.29.33-.23-.38c-3.34-5.83-9.32-8.9-17.3-8.9a23.07,23.07,0,0,0-15.77,6.33l-.56.52V405.7H165.84v56.35h13.63V424.16l.08-.09c4.4-5,8.79-7.42,13.43-7.42,5.94,0,9.63,3.92,9.63,10.24V462h13.63V424.16l.08-.09c4.4-5,8.79-7.42,13.43-7.42,5.94,0,9.62,3.92,9.62,10.24V462H253V425.56c0-13.15-8-21.35-20.95-21.35M113.7,427.9l.1-.41c1.82-6.94,7.08-11.09,14.07-11.09a13.52,13.52,0,0,1,13.33,11.12l.06.38Zm14-23.66C111.08,404.24,99,416.67,99,433.8s12.23,29.69,29.11,29.69c12.32,0,22.53-6.34,27.31-17l.5-1.1L140.54,445l-.24.37c-2.48,3.78-6.92,5.95-12.19,5.95-7.49,0-13-4.81-14.41-12.57l-.07-.38h43v-.93c0-10.68-3-19.41-8.74-25.23-5-5.17-12.18-8-20.1-8" transform="translate(-99 -379.89)"/></svg>